<svg width="32" height="32" viewBox="0 0 32 32" fill="none" xmlns="http://www.w3.org/2000/svg">
<path d="M26.7164 8.5755C26.606 8.43992 26.4661 8.33143 26.3075 8.25834C26.1488 8.18525 25.9755 8.14951 25.8009 8.15384H10.7317L10.4204 6.0914C10.3837 5.82298 10.2532 5.57625 10.0521 5.39501C9.851 5.21378 9.59224 5.10976 9.32179 5.10142L6.18161 5.00059C6.0298 4.99571 5.87855 5.02113 5.73665 5.07537C5.59476 5.12962 5.46507 5.2116 5.35514 5.31654C5.24522 5.42148 5.15726 5.54729 5.09639 5.68661C5.03552 5.82594 5.00296 5.97601 5.00061 6.12806C4.99071 6.43289 5.10162 6.72926 5.30916 6.95251C5.51669 7.17576 5.804 7.30775 6.10837 7.3197L8.29642 7.39303L9.77954 17.1644C9.10777 17.4372 8.55176 17.9356 8.20689 18.574C7.86201 19.2124 7.74978 19.9511 7.88945 20.6633C8.02912 21.3755 8.41197 22.0168 8.97234 22.4773C9.5327 22.9377 10.2356 23.1886 10.9605 23.1868H23.8508C24.1543 23.1868 24.4454 23.0661 24.66 22.8512C24.8746 22.6363 24.9952 22.3449 24.9952 22.041C24.9952 21.7371 24.8746 21.4456 24.66 21.2308C24.4454 21.0159 24.1543 20.8952 23.8508 20.8952H10.9605C10.8432 20.9075 10.7245 20.8949 10.6123 20.8584C10.5001 20.8218 10.3968 20.7621 10.3091 20.683C10.2215 20.6039 10.1514 20.5073 10.1034 20.3994C10.0554 20.2914 10.0306 20.1746 10.0306 20.0564C10.0306 19.9383 10.0554 19.8215 10.1034 19.7135C10.1514 19.6056 10.2215 19.5089 10.3091 19.4299C10.3968 19.3508 10.5001 19.291 10.6123 19.2545C10.7245 19.2179 10.8432 19.2054 10.9605 19.2177H11.0796L24.0522 19.1352C24.3144 19.1309 24.5673 19.038 24.7701 18.8716C24.9728 18.7052 25.1135 18.4751 25.1692 18.2186L26.9727 9.5838C27.0117 9.40737 27.0089 9.22423 26.9644 9.04911C26.9198 8.87399 26.8349 8.71177 26.7164 8.5755ZM23.1184 16.8253L12.05 16.9169L11.0796 10.5004H24.4184L23.1184 16.8253Z" fill="black"/>
<path d="M10.8598 27C11.7194 27 12.4162 26.3023 12.4162 25.4417C12.4162 24.5811 11.7194 23.8834 10.8598 23.8834C10.0003 23.8834 9.30348 24.5811 9.30348 25.4417C9.30348 26.3023 10.0003 27 10.8598 27Z" fill="black"/>
<path d="M21.1135 27C21.973 27 22.6698 26.3023 22.6698 25.4417C22.6698 24.5811 21.973 23.8834 21.1135 23.8834C20.2539 23.8834 19.5571 24.5811 19.5571 25.4417C19.5571 26.3023 20.2539 27 21.1135 27Z" fill="black"/>
</svg>
