<svg width="20" height="20" viewBox="0 0 20 20" fill="none" xmlns="http://www.w3.org/2000/svg">
<path d="M8.99885 4.429V8.57597H6.65807C6.27376 8.57597 6.09908 9.04072 6.34363 9.32671L9.8024 12.8659C9.97709 13.0447 10.2216 13.0447 10.3963 12.8659L13.8551 9.32671C14.1346 9.04072 13.925 8.57597 13.5756 8.57597H11.2348V4.429C11.2348 4.2145 11.0252 4 10.8156 4H9.41809C9.17353 4 8.99885 4.2145 8.99885 4.429Z" fill="black"/>
<path d="M15.25 16.9231L4.75 16.9231C3.80208 16.9231 3 16.2567 3 15.4692L3 13.0462H4.75L4.75 15.2875C4.75 15.3784 4.85938 15.4692 4.96875 15.4692H15.0312C15.1771 15.4692 15.25 15.3784 15.25 15.2875V13.0462H17V15.4692C17 16.2567 16.2344 16.9231 15.25 16.9231Z" fill="black"/>
</svg>
