<svg width="20" height="31" viewBox="0 0 20 31" fill="none" xmlns="http://www.w3.org/2000/svg">
<path d="M10 5.5C4.47581 5.5 0 10.0161 0 15.5C0 21.0242 4.47581 25.5 10 25.5C15.4839 25.5 20 21.0242 20 15.5C20 10.0161 15.4839 5.5 10 5.5ZM13.3065 19.9355C13.1452 20.0968 12.9839 20.2581 12.8226 20.379C12.7016 20.5 12.621 20.6613 12.5806 20.8226C12.5403 21.0645 12.5 21.2661 12.4194 21.5081L11.6935 23.4032C11.129 23.5242 10.5645 23.5645 10 23.5645V22.4758C10.0403 21.9516 9.67742 21.0242 9.07258 20.4194C8.83065 20.1774 8.70968 19.8548 8.70968 19.4919V18.2016C8.70968 17.7581 8.42742 17.3145 8.02419 17.0726C7.45968 16.75 6.6129 16.3065 6.04839 16.0242C5.60484 15.7823 5.16129 15.5 4.79839 15.1371H4.75806C4.51613 14.9355 4.19355 14.5323 4.03226 14.2903C3.62903 13.7258 3.02419 12.8387 2.62097 12.2339C3.46774 10.379 4.91935 8.92742 6.77419 8.12097L7.74194 8.60484C8.18548 8.80645 8.70968 8.52419 8.70968 8.04032V7.55645C8.99194 7.51613 9.35484 7.47581 9.67742 7.47581L10.8065 8.60484C11.0484 8.84677 11.0484 9.29032 10.8065 9.53226L10.6452 9.69355L10.2016 10.1371C10.0806 10.2581 10.0806 10.4597 10.2016 10.5806L10.4032 10.7823C10.5242 10.9032 10.5242 11.1048 10.4032 11.2258L10.0806 11.5484C10.0403 11.5887 9.91936 11.629 9.83871 11.629H9.47581C9.39516 11.629 9.31452 11.6694 9.27419 11.75L8.87097 12.1129C8.79032 12.1935 8.75 12.2742 8.75 12.3548C8.75 12.3952 8.79032 12.4758 8.79032 12.5161L9.43548 13.7661C9.51613 13.9677 9.39516 14.2097 9.15323 14.2097H8.91129C8.83065 14.2097 8.75 14.2097 8.70968 14.1694L8.30645 13.8065C8.22581 13.7258 8.02419 13.6855 7.90323 13.6855C7.82258 13.6855 7.74194 13.6855 7.70161 13.6855L6.45161 14.129C6.25 14.1694 6.12903 14.371 6.12903 14.5726C6.12903 14.7742 6.20968 14.9355 6.37097 15.0161L6.81452 15.2177C7.21774 15.4194 7.62097 15.5 8.06452 15.5C8.46774 15.5 8.95161 16.629 9.35484 16.7903H12.0161C12.379 16.7903 12.7016 16.9516 12.9435 17.1935L13.5081 17.7581C13.7097 17.9194 13.871 18.3226 13.871 18.6048C13.871 19.0484 13.5887 19.6532 13.3065 19.9355ZM16.8145 16.2661C16.5726 16.1855 16.371 16.0645 16.2097 15.8629L15.4839 14.7742C15.4032 14.6129 15.3226 14.4113 15.3226 14.2097C15.3226 14.0484 15.4032 13.8468 15.4839 13.6855L16.2903 12.5161C16.371 12.3548 16.4919 12.2742 16.6532 12.1935L17.1774 11.9113C17.7419 13 18.0645 14.2097 18.0645 15.5C18.0645 15.8629 18.0242 16.2258 17.9839 16.5484L16.8145 16.2661Z" fill="black"/>
</svg>
