<svg width="24" height="24" viewBox="0 0 24 24" fill="none" xmlns="http://www.w3.org/2000/svg">
<path d="M13.11 17.936L20.7 9.76172H15.01L14.6 11.4963L13.11 17.936Z" fill="#9FEDFF"/>
<path d="M10.89 17.936L8.98998 9.76172H3.29999L10.89 17.936Z" fill="#9FEDFF"/>
<path d="M3.29999 8.46317H8.48999L6.75999 4.73438L3.29999 8.46317Z" fill="#9FEDFF"/>
<path d="M17.24 4.73438L15.51 8.46317H20.7L17.24 4.73438Z" fill="#9FEDFF"/>
<path d="M10.43 8.46403H13.57L12 5.08838L10.43 8.46403Z" fill="#9FEDFF"/>
<path d="M7.89001 4.29834L9.46001 7.6636L11.03 4.29834H7.89001Z" fill="#9FEDFF"/>
<path d="M16.11 4.29834H12.97L14.54 7.6636L16.11 4.29834Z" fill="#9FEDFF"/>
<path d="M12 17.3751L13.77 9.76172H10.23L12 17.3751Z" fill="#9FEDFF"/>
<path d="M22.4 8.46336L17.81 3.51933L17.33 3H6.68L6.2 3.51933L1.6 8.46336L1 9.10733L1.6 9.7513L11.34 20.2833L12.01 21L12.67 20.2833L22.4 9.80323L23 9.15926L22.4 8.46336ZM13.11 17.9256L14.61 11.4962L15.01 9.7513H20.71L13.11 17.9256ZM3.3 9.7513H9L10.9 17.9256L3.3 9.7513ZM17.3 4.73456L20.76 8.46336H15.56L17.3 4.73456ZM12 17.3751L10.23 9.7513H13.81L12 17.3751ZM7.9 4.28794H11.03L9.47 7.6532L7.9 4.28794ZM10.43 8.44259L12 5.06694L13.58 8.44259H10.43ZM16.11 4.28794L14.54 7.6532L12.98 4.28794H16.11ZM8.5 8.44259H3.3L6.81 4.7034L8.5 8.44259Z" fill="#2DB0EA"/>
</svg>
