<svg width="24" height="24" viewBox="0 0 24 24" fill="none" xmlns="http://www.w3.org/2000/svg">
<path d="M20.1687 17.7601L20.2287 17.6922L21.4993 17.7601H20.1687ZM4.00135 17.0134L2.85083 6.18193L7.44292 10.5843C7.60991 10.7425 7.81315 10.8602 8.03602 10.9278C8.2589 10.9953 8.4951 11.0108 8.72533 10.973C8.95557 10.9352 9.17331 10.8451 9.36077 10.7101C9.54824 10.5752 9.70011 10.3992 9.80399 10.1965L12.1351 5.39648L14.4761 10.1965C14.5964 10.4383 14.7857 10.6417 15.0215 10.7826C15.2573 10.9235 15.5298 10.996 15.8067 10.9916C16.1812 10.9825 16.5383 10.8371 16.8072 10.5843L21.4193 6.2789L20.2387 17.0134H4.00135Z" fill="#FFDB45"/>
<path d="M12.1451 7.15135L13.7658 10.4774C13.9481 10.8427 14.232 11.1515 14.5855 11.3691C14.9389 11.5866 15.348 11.7043 15.7667 11.7089C16.3552 11.7105 16.9215 11.4916 17.3474 11.098L20.3488 8.26649L19.4784 16.2374H4.74168L3.87129 8.28589L6.87265 11.1174C7.29853 11.511 7.86489 11.7299 8.45337 11.7283C8.87206 11.7237 9.28113 11.606 9.6346 11.3885C9.98807 11.1709 10.2719 10.8621 10.4543 10.4968L12.1451 7.15135ZM12.1451 4.49439C12.018 4.48846 11.8918 4.51826 11.7817 4.58019C11.6717 4.64212 11.5825 4.73355 11.5248 4.84348L9.09366 9.85679C9.03408 9.9652 8.94444 10.0553 8.83484 10.117C8.72525 10.1787 8.60006 10.2095 8.47338 10.2059C8.30386 10.2126 8.13734 10.1611 8.00317 10.0604L3.20098 5.54166C3.13831 5.47995 3.06355 5.431 2.98108 5.39769C2.89861 5.36439 2.81011 5.3474 2.72077 5.34772C2.62906 5.33481 2.53555 5.34166 2.44688 5.36778C2.35822 5.39389 2.27659 5.43864 2.20781 5.49883C2.13902 5.55901 2.08478 5.63316 2.04894 5.71599C2.01309 5.79881 1.99653 5.88828 2.00044 5.97802L3.33104 17.818H20.9491L22.2396 5.97802C22.2426 5.89281 22.2272 5.80794 22.1943 5.72886C22.1613 5.64979 22.1117 5.57827 22.0486 5.5189C21.9855 5.45953 21.9102 5.41363 21.8277 5.38415C21.7451 5.35467 21.6571 5.34226 21.5693 5.34772C21.4783 5.34609 21.3879 5.36244 21.3036 5.39579C21.2194 5.42913 21.143 5.47876 21.0791 5.54166L16.2969 10.0604C16.1633 10.1795 15.9882 10.2453 15.8067 10.2447C15.68 10.2482 15.5549 10.2175 15.4453 10.1558C15.3357 10.0941 15.246 10.004 15.1864 9.89558L12.7553 4.86288C12.6993 4.75372 12.6119 4.66264 12.5036 4.60068C12.3952 4.53872 12.2707 4.50854 12.1451 4.51379V4.49439Z" fill="#EFA500"/>
<path d="M11.5048 12.3101L12.135 11.7671L12.7253 12.3004L12.105 12.8337L11.5048 12.3101Z" fill="#FFDB45"/>
<path d="M12.1151 11.0308C11.9323 11.0296 11.755 11.0914 11.6149 11.2053L10.8345 11.8841C10.7694 11.9369 10.717 12.0029 10.681 12.0775C10.645 12.152 10.6264 12.2333 10.6264 12.3156C10.6264 12.3979 10.645 12.4792 10.681 12.5538C10.717 12.6283 10.7694 12.6943 10.8345 12.7471L11.6149 13.4162C11.7524 13.5355 11.9305 13.6014 12.1151 13.6014C12.2997 13.6014 12.4778 13.5355 12.6153 13.4162L13.3957 12.7471C13.4608 12.6943 13.5132 12.6283 13.5492 12.5538C13.5851 12.4792 13.6038 12.3979 13.6038 12.3156C13.6038 12.2333 13.5851 12.152 13.5492 12.0775C13.5132 12.0029 13.4608 11.9369 13.3957 11.8841L12.6153 11.2053C12.4752 11.0914 12.2979 11.0296 12.1151 11.0308Z" fill="#FF772C"/>
<path d="M12.115 6.69574C12.977 6.69574 13.6757 6.09228 13.6757 5.34787C13.6757 4.60346 12.977 4 12.115 4C11.2531 4 10.5543 4.60346 10.5543 5.34787C10.5543 6.09228 11.2531 6.69574 12.115 6.69574Z" fill="#EFA500"/>
<path d="M2.56071 7.42279C3.42266 7.42279 4.12141 6.81933 4.12141 6.07492C4.12141 5.33051 3.42266 4.72705 2.56071 4.72705C1.69875 4.72705 1 5.33051 1 6.07492C1 6.81933 1.69875 7.42279 2.56071 7.42279Z" fill="#EFA500"/>
<path d="M21.4393 7.42279C22.3013 7.42279 23 6.81933 23 6.07492C23 5.33051 22.3013 4.72705 21.4393 4.72705C20.5774 4.72705 19.8786 5.33051 19.8786 6.07492C19.8786 6.81933 20.5774 7.42279 21.4393 7.42279Z" fill="#EFA500"/>
<path d="M20.9391 18.5649H3.32104V20.0001H20.9391V18.5649Z" fill="#EFA500"/>
</svg>
