<svg width="32" height="32" viewBox="0 0 32 32" fill="none" xmlns="http://www.w3.org/2000/svg">
<path d="M5 16L5.75 15C5.46107 14.7833 5.09253 14.7022 4.7393 14.7775C4.38608 14.8528 4.0827 15.0772 3.9073 15.3929L5 16ZM26.2682 22.6827C26.6452 22.1044 26.4821 21.33 25.9038 20.9529C25.3255 20.5759 24.551 20.739 24.174 21.3173L26.2682 22.6827ZM1.4073 19.8929C1.07204 20.4964 1.28947 21.2574 1.89295 21.5927C2.49643 21.928 3.25743 21.7105 3.5927 21.1071L1.4073 19.8929ZM8.25 20C8.80228 20.4142 9.58579 20.3023 10 19.75C10.4142 19.1977 10.3023 18.4142 9.75 18L8.25 20ZM16 25.75C10.6152 25.75 6.25 21.3848 6.25 16H3.75C3.75 22.7655 9.23451 28.25 16 28.25V25.75ZM24.174 21.3173C22.4322 23.9886 19.4215 25.75 16 25.75V28.25C20.3016 28.25 24.0845 26.0318 26.2682 22.6827L24.174 21.3173ZM3.9073 15.3929L1.4073 19.8929L3.5927 21.1071L6.0927 16.6071L3.9073 15.3929ZM4.25 17L8.25 20L9.75 18L5.75 15L4.25 17Z" fill="#785122"/>
<path d="M27 16L26.25 17C26.5389 17.2167 26.9075 17.2978 27.2607 17.2225C27.6139 17.1472 27.9173 16.9228 28.0927 16.6071L27 16ZM5.73184 9.31728C5.35479 9.89557 5.51792 10.67 6.09621 11.0471C6.67451 11.4241 7.44897 11.261 7.82602 10.6827L5.73184 9.31728ZM30.5927 12.1071C30.928 11.5036 30.7105 10.7426 30.1071 10.4073C29.5036 10.072 28.7426 10.2895 28.4073 10.8929L30.5927 12.1071ZM23.75 12C23.1977 11.5858 22.4142 11.6977 22 12.25C21.5858 12.8023 21.6977 13.5858 22.25 14L23.75 12ZM16 6.25C21.3848 6.25 25.75 10.6152 25.75 16H28.25C28.25 9.23451 22.7655 3.75 16 3.75V6.25ZM7.82602 10.6827C9.56777 8.01138 12.5785 6.25 16 6.25V3.75C11.6984 3.75 7.91549 5.9682 5.73184 9.31728L7.82602 10.6827ZM28.0927 16.6071L30.5927 12.1071L28.4073 10.8929L25.9073 15.3929L28.0927 16.6071ZM27.75 15L23.75 12L22.25 14L26.25 17L27.75 15Z" fill="#785122"/>
</svg>
