<svg width="32" height="32" viewBox="0 0 32 32" fill="none" xmlns="http://www.w3.org/2000/svg">
<path d="M31.4152 28.5818L24.714 21.8701C24.714 21.8256 24.6341 21.8167 24.5896 21.7811C26.6399 19.0082 27.5659 15.5606 27.1816 12.1316C26.7973 8.70264 25.1312 5.54652 22.5181 3.29785C19.905 1.04918 16.5389 -0.125283 13.0965 0.0106017C9.65405 0.146487 6.39063 1.58264 3.96238 4.03031C1.53412 6.47798 0.121103 9.75565 0.00743018 13.2043C-0.106242 16.6529 1.08786 20.0168 3.34965 22.6196C5.61143 25.2223 8.77317 26.8709 12.1992 27.2339C15.6251 27.5969 19.0613 26.6473 21.8167 24.5762C21.8403 24.6168 21.867 24.6555 21.8967 24.6919L28.5979 31.4125C28.7811 31.5991 28.9997 31.7471 29.2409 31.848C29.482 31.9489 29.7408 32.0006 30.0021 32C30.3973 31.9996 30.7836 31.882 31.1121 31.6619C31.4406 31.4418 31.6967 31.1291 31.8479 30.7634C31.9991 30.3976 32.0387 29.9952 31.9617 29.6069C31.8847 29.2186 31.6945 28.8619 31.4152 28.5818ZM13.6492 23.9887C11.6081 23.9834 9.61446 23.3725 7.91986 22.2332C6.22526 21.0938 4.90574 19.477 4.12792 17.5871C3.3501 15.6971 3.14887 13.6187 3.54964 11.6142C3.9504 9.6098 4.93519 7.76925 6.37964 6.32501C7.8241 4.88076 9.66345 3.89758 11.6654 3.49963C13.6674 3.10168 15.7422 3.3068 17.6279 4.08909C19.5135 4.87138 21.1254 6.19576 22.2601 7.89498C23.3948 9.5942 24.0013 11.5921 24.003 13.6363C24.003 14.9973 23.7351 16.3449 23.2146 17.6021C22.694 18.8593 21.9311 20.0013 20.9694 20.9628C20.0077 21.9244 18.8662 22.6866 17.6101 23.2058C16.354 23.725 15.008 23.991 13.6492 23.9887Z" fill="white"/>
</svg>
