<svg width="32" height="32" viewBox="0 0 32 32" fill="none" xmlns="http://www.w3.org/2000/svg">
<path d="M26.5982 24.6514L22.0183 20.0643C21.9899 20.0426 21.9592 20.0242 21.9268 20.0093C23.3413 18.1011 23.9819 15.7273 23.7199 13.3652C23.4579 11.0031 22.3126 8.82802 20.5144 7.27737C18.7162 5.72672 16.3985 4.91553 14.0275 5.00697C11.6564 5.0984 9.4078 6.08567 7.73398 7.77021C6.06016 9.45475 5.08525 11.7116 5.00533 14.0869C4.92541 16.4621 5.74642 18.7796 7.30322 20.5732C8.86001 22.3668 11.0371 23.5034 13.3967 23.7545C15.7562 24.0056 18.1232 23.3525 20.0215 21.9267C20.0366 21.9562 20.0551 21.9839 20.0765 22.0092L24.6563 26.5963C24.9154 26.852 25.2636 26.9967 25.6273 27C25.8988 26.9998 26.1642 26.9189 26.3899 26.7677C26.6157 26.6165 26.7916 26.4016 26.8955 26.1503C26.9994 25.899 27.0266 25.6225 26.9737 25.3557C26.9207 25.0889 26.7901 24.8439 26.5982 24.6514ZM14.3975 21.4955C12.9943 21.4937 11.6231 21.0754 10.4571 20.2934C9.29113 19.5114 8.38269 18.4009 7.84654 17.1021C7.31039 15.8033 7.17058 14.3745 7.44478 12.9961C7.71898 11.6178 8.39488 10.3517 9.38711 9.35793C10.3793 8.36413 11.6434 7.68715 13.0195 7.41252C14.3957 7.13788 15.8223 7.27791 17.119 7.81491C18.4158 8.35192 19.5245 9.2618 20.3052 10.4296C21.086 11.5975 21.5036 12.9708 21.5054 14.3763C21.5066 15.3115 21.3236 16.2378 20.9668 17.1021C20.61 17.9664 20.0865 18.7517 19.4262 19.413C18.766 20.0743 17.9819 20.5987 17.119 20.956C16.2561 21.3134 15.3313 21.4967 14.3975 21.4955Z" fill="black"/>
</svg>
