<svg width="14" height="15" viewBox="0 0 14 15" fill="none" xmlns="http://www.w3.org/2000/svg">
<path d="M6.70844 4.25461C10.2323 4.25461 11.3766 6.20942 11.7509 7.36572C11.8032 7.53484 11.8032 7.71512 11.7509 7.88424C11.3766 9.05091 10.2323 10.9953 6.70844 10.9953C3.18462 10.9953 2.04032 9.04054 1.66601 7.88424C1.61369 7.71512 1.61369 7.53484 1.66601 7.36572C2.04032 6.19905 3.18462 4.25461 6.70844 4.25461ZM6.70844 2.95831C2.19539 2.95831 0.794416 5.72202 0.388028 6.99239C0.259553 7.40491 0.259553 7.84504 0.388028 8.25757C0.794416 9.52794 2.19539 12.2916 6.70844 12.2916C11.2215 12.2916 12.6225 9.52794 13.0289 8.25757C13.1573 7.84504 13.1573 7.40491 13.0289 6.99239C12.6225 5.72202 11.2215 2.95831 6.70844 2.95831Z" fill="#979797"/>
<path d="M6.70844 10.425C6.32925 10.4335 5.95204 10.3695 5.59836 10.2366C5.24467 10.1038 4.92143 9.9047 4.6471 9.65071C4.09305 9.13776 3.77183 8.4324 3.7541 7.68979C3.73638 6.94719 4.02359 6.22817 4.55257 5.69091C5.08155 5.15366 5.80895 4.84217 6.57476 4.82498C6.71198 4.81833 6.84793 4.85318 6.96384 4.9247C7.07974 4.99622 7.16988 5.10089 7.22178 5.22424C7.27417 5.34673 7.28689 5.48178 7.25823 5.61144C7.22958 5.74111 7.16091 5.85925 7.06136 5.95017C6.98359 6.01936 6.92155 6.10351 6.8792 6.19725C6.83685 6.29099 6.81512 6.39227 6.81539 6.49461C6.81416 6.66346 6.87199 6.82773 6.97944 6.96061C7.0869 7.09349 7.23762 7.18712 7.40702 7.22623C7.57642 7.26535 7.75449 7.24762 7.91216 7.17596C8.06984 7.10429 8.19781 6.98292 8.27518 6.83165C8.33691 6.7135 8.43476 6.61672 8.55535 6.55454C8.67595 6.49236 8.8134 6.4678 8.94893 6.48424C9.08783 6.50281 9.2174 6.56263 9.31985 6.65547C9.42229 6.74831 9.49259 6.86963 9.52108 7.00276C9.61954 7.41279 9.62101 7.83911 9.52539 8.24977C9.42977 8.66043 9.23954 9.04477 8.96895 9.374C8.69837 9.70323 8.35445 9.96881 7.96296 10.1508C7.57148 10.3328 7.14259 10.4266 6.70844 10.425ZM5.48393 6.69165C5.26751 6.95732 5.15061 7.28642 5.1524 7.62498C5.15351 7.94212 5.25764 8.25086 5.45001 8.50735C5.64237 8.76383 5.91318 8.95502 6.22398 9.05376C6.53478 9.1525 6.86976 9.15377 7.18135 9.05738C7.49293 8.96099 7.76528 8.77186 7.95969 8.51683C7.83611 8.53783 7.71086 8.54824 7.58539 8.54794C7.06143 8.54186 6.55801 8.34947 6.17064 8.00729C5.78327 7.66512 5.53891 7.19696 5.48393 6.69165Z" fill="#979797"/>
</svg>
