<svg width="24" height="24" viewBox="0 0 24 24" fill="none" xmlns="http://www.w3.org/2000/svg">
<path d="M22.5174 6.54167C22.2761 5.54167 21.5119 4.75 20.5868 4.5C18.8574 4 12.0201 4 12.0201 4C12.0201 4 5.1426 4 3.41316 4.5C2.48812 4.75 1.72395 5.54167 1.48263 6.54167C1 8.29167 1 12.0417 1 12.0417C1 12.0417 1 15.75 1.48263 17.5417C1.72395 18.5417 2.48812 19.2917 3.41316 19.5417C5.1426 20 12.0201 20 12.0201 20C12.0201 20 18.8574 20 20.5868 19.5417C21.5119 19.2917 22.2761 18.5417 22.5174 17.5417C23 15.75 23 12.0417 23 12.0417C23 12.0417 23 8.29167 22.5174 6.54167ZM9.76782 15.4167V8.66667L15.479 12.0417L9.76782 15.4167Z" fill="white"/>
</svg>
