<svg width="183" height="42" viewBox="0 0 183 42" fill="none" xmlns="http://www.w3.org/2000/svg">
<g clip-path="url(#clip0)">
<path d="M139.555 4.76627C139.699 4.76627 139.755 4.85207 139.731 5.1017C139.707 5.35133 139.891 5.38254 140.171 5.40594H140.307H147.862C147.982 5.3983 148.099 5.36582 148.205 5.31067C148.311 5.25553 148.404 5.17898 148.478 5.08611C148.593 4.9639 148.722 4.85405 148.861 4.75846C149.024 4.86712 149.172 4.99558 149.301 5.14072C149.821 5.52296 150.028 5.84279 149.917 6.10802C149.851 6.18442 149.763 6.2395 149.664 6.26598C149.566 6.29245 149.461 6.28906 149.365 6.25624C149.248 6.22504 149.08 6.31083 148.861 6.51366L148.358 6.94272C148.158 7.13774 147.99 7.19235 147.862 7.09094C147.903 6.92151 147.962 6.75676 148.038 6.59948L148.23 6.02222C148.278 5.8272 148.23 5.72578 148.006 5.72578H146.807C146.599 5.72578 146.615 5.81158 146.855 5.9832C147.302 6.24843 147.542 6.47466 147.59 6.66969C147.59 6.73209 147.446 6.77889 147.158 6.8101H143.569C143.452 6.81974 143.34 6.85857 143.244 6.9228C143.147 6.98702 143.069 7.07448 143.017 7.17674C142.881 7.35616 142.729 7.5512 142.553 7.75402C142.378 7.95684 142.378 8.07384 142.553 8.07384C143.625 8.06708 144.695 7.97579 145.751 7.80082C145.967 7.76182 145.975 7.6448 145.751 7.44977C145.527 7.25475 145.408 7.20795 145.392 7.16115C145.376 7.11434 145.551 7.08314 145.895 7.16115C146.247 7.25547 146.587 7.38623 146.911 7.55119C147.131 7.63317 147.328 7.76728 147.483 7.94152C147.638 8.11576 147.746 8.3247 147.798 8.5497C147.734 8.91635 147.534 9.05675 147.206 8.97874C146.942 8.79792 146.71 8.57664 146.519 8.32347C146.451 8.23413 146.353 8.17003 146.243 8.14168C146.133 8.11334 146.016 8.12244 145.911 8.16747L144.768 8.43269C144.528 8.4951 144.416 8.60431 144.416 8.76813V9.40781C144.416 9.61063 144.512 9.71203 144.712 9.71203H145.432C145.647 9.81344 145.911 9.64962 146.231 9.22057C146.471 8.98654 146.599 8.86954 146.639 8.86954L147.694 9.64963C147.846 9.73544 147.894 9.82906 147.846 9.94607C147.771 10.0082 147.681 10.0507 147.585 10.0698C147.488 10.0889 147.388 10.0839 147.294 10.0553H144.76C144.718 10.0489 144.676 10.052 144.635 10.0645C144.595 10.077 144.558 10.0985 144.528 10.1273C144.498 10.1561 144.475 10.1913 144.461 10.2303C144.447 10.2692 144.443 10.3108 144.448 10.3517V10.8041C144.448 11.0148 144.544 11.1162 144.744 11.1162H147.038C147.254 11.2098 147.51 11.046 147.838 10.6247C148.102 10.3283 148.366 10.2815 148.637 10.4765L149.437 11.0382C149.597 11.163 149.629 11.2722 149.525 11.358C149.375 11.4267 149.209 11.4537 149.045 11.436H139.491L139.084 11.4984C138.828 11.4984 138.668 11.4594 138.612 11.2878C138.556 11.1162 138.7 11.0382 139.036 11.0616L139.467 11.1162H143.169C143.211 11.1226 143.253 11.1194 143.294 11.1069C143.334 11.0944 143.371 11.0729 143.401 11.0442C143.431 11.0154 143.454 10.9801 143.468 10.9412C143.482 10.9022 143.486 10.8607 143.481 10.8198V10.3517C143.481 10.1411 143.385 10.0397 143.177 10.0397H140.939L140.531 10.1021C140.475 10.1135 140.418 10.114 140.362 10.1037C140.306 10.0934 140.253 10.0725 140.205 10.042C140.158 10.0116 140.117 9.97225 140.085 9.92633C140.053 9.88042 140.031 9.82881 140.019 9.77445C139.784 9.36162 139.632 8.90886 139.571 8.44048C139.539 8.29662 139.539 8.14749 139.571 8.00363C139.755 7.9825 139.94 7.9825 140.123 8.00363C140.547 8.04264 140.923 8.06604 141.386 8.07384C141.497 8.06505 141.603 8.026 141.692 7.96116C141.781 7.89632 141.85 7.8083 141.89 7.70719C141.978 7.52175 142.048 7.32844 142.098 7.12994C142.162 6.91151 142.098 6.8101 141.898 6.8101C141.468 6.78342 141.036 6.80437 140.611 6.87252C140.355 6.87252 140.195 6.8335 140.147 6.66969C140.099 6.50587 140.147 6.40447 140.435 6.41227L140.994 6.49026H145.312C145.442 6.47437 145.568 6.43305 145.682 6.36872C145.796 6.3044 145.896 6.21841 145.975 6.11583C146.223 5.8584 146.239 5.72578 146.031 5.72578H140.323H140.099C140.051 5.72567 140.003 5.73525 139.959 5.75395C139.914 5.77264 139.874 5.80004 139.841 5.83444C139.808 5.86883 139.783 5.90949 139.767 5.95387C139.751 5.99826 139.744 6.04542 139.747 6.09243C139.651 6.78411 139.34 7.16635 138.812 7.23916C138.742 7.24254 138.673 7.23057 138.609 7.20416C138.545 7.17776 138.487 7.13757 138.441 7.08661C138.395 7.03564 138.361 6.9752 138.343 6.90977C138.324 6.84435 138.32 6.77561 138.332 6.70868C138.436 6.46659 138.608 6.25824 138.828 6.10802C139.188 5.73146 139.439 5.26845 139.555 4.76627ZM143.481 0.389977C143.481 0.140349 143.609 0.0311256 143.857 0.0623291C144.233 0.0833905 144.603 0.165103 144.952 0.304155C145.184 0.569385 145.112 0.764415 144.744 0.89703C144.647 0.910221 144.557 0.954067 144.488 1.02185C144.488 1.07645 144.584 1.10765 144.792 1.10765H147.007C147.22 1.20126 147.486 1.03743 147.806 0.616186C147.931 0.464865 148.076 0.331009 148.238 0.218357C148.346 0.275458 148.448 0.343419 148.541 0.421163C148.861 0.639588 149.173 0.873627 149.493 1.11545C149.573 1.21687 149.565 1.29488 149.493 1.36509C149.343 1.42266 149.181 1.44406 149.021 1.42749H147.422C147.214 1.42749 147.23 1.51331 147.478 1.68493L147.894 2.00474C148.206 2.23097 148.35 2.3636 148.342 2.41041C148.326 2.46832 148.293 2.52012 148.246 2.55862C148.095 2.60096 147.938 2.61681 147.782 2.60543H140.803L140.403 2.66782C140.139 2.66782 139.987 2.66782 139.931 2.4728C139.875 2.27778 139.931 2.19977 140.219 2.20757L140.779 2.28559H143.177C143.219 2.292 143.261 2.28883 143.302 2.27633C143.342 2.26382 143.379 2.24232 143.409 2.21355C143.439 2.18478 143.462 2.14952 143.476 2.11056C143.49 2.07161 143.494 2.03003 143.489 1.98915V1.77073C143.489 1.5679 143.393 1.46648 143.185 1.46648H139.563L139.156 1.5289C138.892 1.56791 138.732 1.52889 138.676 1.32607C138.62 1.12325 138.764 1.06865 139.092 1.09205L139.539 1.14666H143.177C143.219 1.15308 143.261 1.14988 143.302 1.13738C143.342 1.12488 143.379 1.1034 143.409 1.07463C143.439 1.04585 143.462 1.01057 143.476 0.971616C143.49 0.932663 143.494 0.891111 143.489 0.850227L143.481 0.389977ZM143.105 8.73692C142.442 8.82273 141.706 8.91634 140.899 9.00214C140.627 9.00214 140.483 9.09578 140.475 9.2908C140.466 9.38941 140.436 9.4851 140.387 9.57162C140.339 9.62622 140.467 9.66524 140.747 9.68084H140.923H143.169C143.377 9.68084 143.481 9.58721 143.481 9.39219V8.97096C143.481 8.79154 143.337 8.71351 143.105 8.73692ZM140.707 3.20609C140.707 2.96426 140.707 2.83944 140.755 2.83944C140.912 2.89676 141.065 2.96725 141.21 3.05008C141.38 3.18688 141.584 3.27589 141.802 3.3075H146.199C146.3 3.30646 146.4 3.28513 146.492 3.24487C146.584 3.20461 146.667 3.14628 146.735 3.07349C146.821 2.97417 146.924 2.88976 147.038 2.82385C147.202 2.90261 147.351 3.00814 147.478 3.13588C147.766 3.33351 147.918 3.49733 147.934 3.62734C147.982 3.78336 147.934 3.88477 147.694 3.94718C147.454 4.00959 147.534 4.12659 147.534 4.32161C147.554 4.5422 147.554 4.7641 147.534 4.98469C147.504 5.04588 147.453 5.09532 147.39 5.1251C147.264 5.19116 147.121 5.21903 146.978 5.20514C146.836 5.19124 146.701 5.13622 146.591 5.04711V4.89108C146.591 4.78967 146.503 4.74286 146.327 4.74286H142.042C141.842 4.74286 141.738 4.78187 141.738 4.86768C141.738 5.10171 141.562 5.21093 141.25 5.19533C140.939 5.17973 140.779 5.1173 140.755 5.0783V3.18269L140.707 3.20609ZM146.551 4.06419C146.551 3.78336 146.455 3.63515 146.271 3.63515H142.066C142.012 3.63804 141.959 3.65159 141.91 3.67498C141.862 3.69837 141.819 3.7311 141.784 3.7712C141.749 3.81131 141.722 3.85795 141.706 3.90831C141.69 3.95867 141.685 4.0117 141.69 4.06419C141.69 4.32162 141.786 4.44643 141.994 4.44643H146.231C146.415 4.44643 146.535 4.32162 146.535 4.06419H146.551ZM146.703 1.79413C146.919 1.5445 146.935 1.42749 146.751 1.42749H144.824C144.616 1.42749 144.512 1.52109 144.512 1.71611V1.98134C144.512 2.18417 144.608 2.28559 144.808 2.28559H145.943C146.127 2.387 146.383 2.22318 146.671 1.77073L146.703 1.79413Z" fill="#54565A"/>
<path d="M160.821 0.296414C161.005 0.070188 161.197 0.0779889 161.397 0.296414L161.485 0.397829C161.608 0.530631 161.71 0.680473 161.788 0.842486C161.756 0.890983 161.712 0.931124 161.66 0.959494C161.597 0.959494 161.66 1.10773 161.876 1.36516C162.092 1.62259 162.236 1.80979 162.116 1.93461C161.986 1.94967 161.855 1.94967 161.724 1.93461C161.509 1.93461 161.485 2.05942 161.66 2.30125C161.836 2.54308 161.892 2.6601 161.836 2.70691C161.75 2.75719 161.649 2.77905 161.549 2.76931C161.397 2.76931 161.413 2.89412 161.597 3.13595C161.78 3.37778 161.94 3.57279 161.812 3.6664C161.667 3.69056 161.518 3.69056 161.373 3.6664C160.771 3.6291 160.166 3.6658 159.574 3.77563C159.574 3.77563 159.502 3.66641 159.47 3.50259C159.438 3.33877 159.55 3.26857 159.798 3.28417L160.317 3.33097C160.431 3.33654 160.543 3.31533 160.646 3.26915C160.75 3.22297 160.84 3.15319 160.909 3.06574C161.085 2.83952 161.069 2.73031 160.869 2.73031C160.529 2.71594 160.189 2.73685 159.854 2.79271C159.598 2.79271 159.454 2.79271 159.422 2.62109L159.358 2.37145C159.358 2.37145 159.51 2.33245 159.766 2.37145C159.967 2.37029 160.168 2.38858 160.365 2.42607C160.467 2.42445 160.566 2.40129 160.657 2.35817C160.749 2.31505 160.829 2.25302 160.893 2.17643C161.037 2.00481 161.005 1.91901 160.797 1.91901C160.439 1.89991 160.079 1.92084 159.726 1.98141C159.438 2.01261 159.286 2.01261 159.27 1.98141C159.27 1.9034 159.142 1.89561 158.99 1.94241C158.884 1.95513 158.782 1.99306 158.695 2.0529C158.607 2.11274 158.535 2.19265 158.487 2.28566C158.335 2.48848 158.167 2.7069 157.975 2.94093C157.783 3.17495 157.775 3.26858 158.023 3.24517H158.215C158.255 3.24345 158.295 3.23262 158.33 3.21356C158.366 3.1945 158.396 3.16773 158.42 3.13528C158.443 3.10284 158.458 3.0656 158.464 3.02649C158.47 2.98737 158.467 2.94741 158.455 2.90972C158.385 2.7277 158.385 2.6341 158.455 2.6289C158.641 2.69877 158.806 2.81427 158.934 2.96433C159.088 3.07991 159.204 3.23661 159.268 3.41529C159.331 3.59398 159.341 3.78694 159.294 3.97065C159.274 4.02682 159.241 4.07775 159.197 4.11951C159.154 4.16128 159.101 4.19277 159.043 4.2116C158.985 4.23042 158.924 4.23605 158.863 4.22809C158.803 4.22013 158.745 4.19879 158.694 4.16567C158.605 4.07565 158.539 3.96594 158.503 3.84583C158.503 3.65081 158.423 3.5806 158.327 3.62741C158.231 3.67422 158.175 3.80682 158.175 4.00965V6.03007C158.207 6.12438 158.211 6.22557 158.187 6.32211C158.163 6.41865 158.112 6.50668 158.039 6.57615C157.463 6.77117 157.239 6.63074 157.279 6.14708V5.51521C157.279 5.32279 157.255 5.22139 157.207 5.21099C157.08 5.21099 156.968 5.29679 156.88 5.51521C156.647 5.9903 156.305 6.40669 155.88 6.73215C155.841 6.7119 155.81 6.67879 155.792 6.63854C156.065 5.99036 156.24 5.30727 156.312 4.61033C156.312 4.51672 156.312 4.4621 156.376 4.44649C156.356 4.29797 156.313 4.1533 156.248 4.01745L156.176 3.83803C156.096 3.6352 156.032 3.6586 155.968 3.90823L155.169 7.85548C154.982 8.59862 155.018 9.37843 155.273 10.1021C155.386 10.4311 155.437 10.7773 155.425 11.1241C155.313 11.6545 155.025 11.8261 154.553 11.6389C154.404 11.4436 154.304 11.217 154.261 10.9772C154.218 10.7375 154.233 10.4912 154.305 10.2582C154.357 9.81494 154.357 9.36744 154.305 8.92422C154.305 8.67459 154.153 8.50296 153.802 8.39374C153.605 8.34694 153.509 8.29234 153.514 8.22993C153.514 8.17532 153.706 8.13632 153.954 8.11292C154.136 8.05357 154.3 7.95182 154.433 7.81648C154.579 7.50166 154.689 7.17201 154.761 6.83356L155.992 2.6523C156.088 2.32466 156.16 2.15304 156.208 2.13744C156.352 2.13744 156.384 2.27785 156.296 2.51967L156.168 3.05015C156.168 3.24517 156.248 3.34657 156.536 3.35437H156.792C156.908 3.34329 157.019 3.30391 157.116 3.23984C157.212 3.17577 157.29 3.08907 157.343 2.98773C157.627 2.4979 157.842 1.97316 157.983 1.42755C157.994 1.37611 158.017 1.32788 158.051 1.28659C158.084 1.24531 158.127 1.21208 158.176 1.18946C158.224 1.16685 158.278 1.15546 158.332 1.15616C158.386 1.15686 158.439 1.16965 158.487 1.19354C158.657 1.26114 158.825 1.33914 158.99 1.42755C159.144 1.51658 159.316 1.57243 159.494 1.59136C159.87 1.64275 160.249 1.66622 160.629 1.66157C160.745 1.65166 160.857 1.61722 160.958 1.56063C161.059 1.50404 161.146 1.42669 161.213 1.33395C161.381 1.10772 161.357 0.998513 161.157 0.998513C160.6 0.967723 160.041 1.0044 159.494 1.10771C159.494 1.10771 159.422 1.0063 159.382 0.834677C159.342 0.663058 159.47 0.600652 159.726 0.616253C159.889 0.61856 160.052 0.631605 160.213 0.655272C160.336 0.645184 160.455 0.607533 160.56 0.545286C160.666 0.48304 160.755 0.397864 160.821 0.296414ZM153.626 3.56499C153.674 3.50258 153.826 3.565 154.09 3.72102C154.793 4.34509 155.049 4.88334 154.841 5.34359C154.809 5.41587 154.755 5.47693 154.686 5.51871C154.618 5.56049 154.538 5.58103 154.457 5.57763C154.276 5.53661 154.118 5.42787 154.018 5.27474C153.918 5.12162 153.883 4.93629 153.922 4.75852L153.786 4.01745C153.71 3.87747 153.666 3.72307 153.658 3.56499H153.626ZM154.241 0.327624C154.241 0.249615 154.417 0.327627 154.665 0.452441C154.906 0.588582 155.117 0.770613 155.284 0.987705C155.452 1.2048 155.573 1.45252 155.64 1.71618C155.662 1.78082 155.667 1.84938 155.656 1.91642C155.646 1.98345 155.619 2.04713 155.579 2.10239C155.538 2.15766 155.485 2.20297 155.424 2.23478C155.362 2.26659 155.294 2.28402 155.225 2.28566C154.969 2.28566 154.793 2.14525 154.681 1.7552C154.569 1.36516 154.521 1.09992 154.417 0.772281C154.34 0.634737 154.291 0.483631 154.273 0.327624H154.241ZM156.96 0.421231C157.032 0.1482 157.088 0.00780089 157.119 0C157.431 0.0780089 157.759 0.179401 158.095 0.296414C158.151 0.305849 158.204 0.326738 158.25 0.357668C158.297 0.388597 158.337 0.428871 158.367 0.475843C158.463 0.71507 158.359 0.839893 158.055 0.850294C157.895 0.780086 157.687 0.912701 157.423 1.24034C157.332 1.32361 157.277 1.43732 157.268 1.5588C157.259 1.68027 157.297 1.80056 157.375 1.89561C157.519 2.19204 157.511 2.41826 157.375 2.56648C157.327 2.60968 157.269 2.64205 157.206 2.66134C157.143 2.68064 157.077 2.6864 157.011 2.67825C156.946 2.67009 156.883 2.64822 156.827 2.61411C156.771 2.58 156.724 2.53447 156.688 2.48068C156.587 2.33306 156.521 2.16505 156.496 1.98922C156.464 1.82046 156.413 1.65565 156.344 1.49776C156.176 1.19352 156.104 1.02972 156.128 0.998513C156.152 0.96731 156.272 0.998511 156.448 1.04532C156.624 1.09212 156.768 1.04531 156.864 0.819084L156.96 0.421231ZM163.939 1.41196C163.949 1.35751 163.973 1.3064 164.009 1.26322C164.044 1.22004 164.09 1.18612 164.143 1.16449C164.195 1.14286 164.252 1.13419 164.308 1.13926C164.365 1.14432 164.419 1.16298 164.467 1.19354C164.776 1.28305 165.053 1.45612 165.266 1.69278C165.266 1.95801 165.13 2.07503 164.866 2.03602C164.744 2.03602 164.584 2.15304 164.387 2.38707C164.202 2.61296 163.998 2.82424 163.779 3.01894C163.595 3.17496 163.651 3.23736 163.955 3.20615L164.323 3.15935C164.523 3.15935 164.611 3.01114 164.587 2.80052C164.563 2.58989 164.531 2.47286 164.587 2.44166C164.746 2.53858 164.892 2.65674 165.018 2.79271C165.295 3.09732 165.456 3.48577 165.474 3.89264C165.418 4.28268 165.21 4.3841 164.826 4.21248C164.714 4.08045 164.649 3.91593 164.643 3.74442C164.643 3.5494 164.539 3.47919 164.411 3.52599C164.343 3.57014 164.289 3.63102 164.254 3.70233C164.219 3.77364 164.204 3.85278 164.211 3.93163V5.77266C164.24 5.91424 164.24 6.06011 164.211 6.20169C164.145 6.26961 164.062 6.32052 163.971 6.34991C163.835 6.34991 163.883 6.48253 164.139 6.69315C164.237 6.77395 164.326 6.86558 164.403 6.96619C164.523 7.15341 164.451 7.29383 164.203 7.38744C164.141 7.43168 164.093 7.49127 164.064 7.55992C164.034 7.62858 164.024 7.70375 164.035 7.77749C164.051 8.01386 164.051 8.25098 164.035 8.48735C163.927 8.60344 163.779 8.67584 163.619 8.69018C163.267 8.74479 163.084 8.64338 163.084 8.37815C163.084 8.26114 162.98 8.20653 162.78 8.20653H158.495C158.388 8.21262 158.285 8.25126 158.202 8.31704C158.119 8.38281 158.059 8.4724 158.031 8.57317C158.021 8.63866 157.999 8.70196 157.967 8.76039C157.903 8.95541 157.967 9.05682 158.167 9.05682H163.323C163.44 9.04963 163.554 9.01968 163.658 8.96876C163.762 8.91784 163.855 8.84697 163.931 8.76039L164.299 8.41714C164.347 8.41714 164.491 8.52636 164.722 8.76039C165.162 9.11143 165.386 9.40006 165.394 9.61849C165.372 9.69647 165.327 9.76634 165.265 9.81915C165.202 9.87197 165.124 9.90532 165.042 9.91493C164.778 9.84472 164.587 10.0007 164.475 10.383C164.337 10.7492 164.113 11.0781 163.819 11.3425C163.346 11.6499 162.788 11.8079 162.22 11.7949C162.111 11.8018 162.003 11.7677 161.918 11.6996C161.833 11.6315 161.778 11.5345 161.764 11.4283C161.678 11.1915 161.512 10.9905 161.293 10.8588C160.997 10.7808 160.877 10.6482 160.925 10.4688C161.067 10.4477 161.213 10.4611 161.349 10.5078C161.867 10.6549 162.41 10.7052 162.948 10.656C163.322 10.4387 163.606 10.0987 163.747 9.6965C163.811 9.48588 163.747 9.38447 163.539 9.38447H158.063C157.943 9.3927 157.829 9.43793 157.737 9.51365C157.645 9.58936 157.58 9.69163 157.551 9.8057C157.439 10.0787 157.175 10.1334 156.752 9.99294C156.488 9.89933 156.432 9.75891 156.576 9.57168C156.854 9.01763 157.081 8.44074 157.255 7.84769C157.367 7.53566 157.551 7.45764 157.807 7.62146C158.063 7.78528 158.263 7.9647 158.463 7.88669H162.732C162.94 7.88669 163.052 7.75407 163.052 7.49664C163.052 7.23922 162.948 7.07539 162.748 7.07539H157.647L157.239 7.13781C156.984 7.17682 156.824 7.13782 156.776 6.9506C156.728 6.76338 156.84 6.68535 157.103 6.69315C157.281 6.70251 157.457 6.72337 157.631 6.75557H162.692C162.788 6.75692 162.883 6.73968 162.972 6.70487C163.062 6.67006 163.143 6.61835 163.211 6.55274C163.363 6.40453 163.419 6.31091 163.387 6.27971C163.362 6.14042 163.362 5.99774 163.387 5.85845V5.3046C163.387 5.05497 163.315 5.08618 163.163 5.39042C162.97 5.80839 162.68 6.17687 162.316 6.46692C162.279 6.43679 162.254 6.39563 162.244 6.34991C162.428 5.84899 162.525 5.32176 162.532 4.78973C162.532 4.57131 162.532 4.44651 162.532 4.41531C162.443 4.31781 162.375 4.20369 162.332 4.07985L162.18 3.63522C162.084 3.36999 162.18 3.23737 162.516 3.24517H162.772C162.89 3.22968 163.002 3.18871 163.102 3.12528C163.202 3.06186 163.285 2.97757 163.347 2.87853C163.615 2.41604 163.825 1.9236 163.971 1.41196H163.939ZM157.159 4.03305L156.888 4.18127L156.8 4.46211C156.736 4.53232 156.8 4.60252 156.976 4.67273C157.151 4.74293 157.247 4.61812 157.247 4.37629C157.247 4.13446 157.255 4.00184 157.191 4.03305H157.159ZM158.335 4.37629C158.335 4.37629 158.519 4.47769 158.822 4.75852C158.953 4.90022 159.052 5.06786 159.11 5.24998C159.165 5.36665 159.189 5.49459 159.18 5.62248C159.172 5.75038 159.131 5.87429 159.062 5.98327C158.662 6.2485 158.415 6.11589 158.319 5.60103C158.335 5.32823 158.335 5.05473 158.319 4.78193C158.343 4.5323 158.335 4.39969 158.367 4.37629H158.335ZM159.366 4.37629C159.366 4.10326 159.494 4.03306 159.742 4.16567C159.845 4.26656 159.971 4.34239 160.11 4.3871C160.249 4.4318 160.397 4.44413 160.541 4.42309C160.734 4.42704 160.921 4.35701 161.061 4.22807C161.141 4.13919 161.232 4.06057 161.333 3.99405C161.499 4.06547 161.651 4.16593 161.78 4.29049C162.044 4.46211 162.18 4.63373 162.18 4.80535C162.18 4.85216 162.092 4.91456 161.98 5.00037C161.868 5.08618 161.804 5.18759 161.804 5.38261V5.93647C161.9 6.32651 161.748 6.52933 161.349 6.53713C160.949 6.54493 160.917 6.49034 160.909 6.26411C160.909 6.1627 160.805 6.1159 160.605 6.1159C160.405 6.1159 160.301 6.1627 160.293 6.24071C160.302 6.27333 160.303 6.30736 160.296 6.34032C160.289 6.37328 160.275 6.40431 160.254 6.43121C160.233 6.45811 160.207 6.48018 160.176 6.4958C160.146 6.51142 160.112 6.52022 160.078 6.52153C159.55 6.69315 159.278 6.52153 159.398 6.05348L159.366 4.37629ZM160.877 5.04718C160.884 5.00645 160.88 4.96477 160.867 4.92548C160.855 4.88619 160.833 4.85036 160.803 4.82083C160.774 4.79129 160.738 4.76888 160.698 4.75536C160.658 4.74184 160.615 4.73758 160.573 4.74293C160.529 4.7449 160.487 4.75542 160.447 4.77386C160.407 4.79229 160.372 4.81827 160.343 4.85027C160.314 4.88228 160.292 4.91965 160.278 4.96017C160.264 5.00068 160.258 5.04353 160.261 5.08617V5.49181C160.261 5.69463 160.357 5.79606 160.565 5.79606C160.773 5.79606 160.877 5.70244 160.877 5.49962V5.04718ZM163.068 0.444633C163.139 0.171602 163.203 0.0312026 163.243 0.0234017L164.211 0.327624C164.491 0.413434 164.571 0.561648 164.451 0.787874C164.408 0.828181 164.356 0.857773 164.299 0.874077C164.241 0.890381 164.181 0.892908 164.123 0.881481C163.987 0.842476 163.859 0.881482 163.723 1.0531L163.483 1.28714C163.386 1.36005 163.318 1.46481 163.293 1.58227C163.268 1.69973 163.288 1.82205 163.347 1.92682C163.411 2.03747 163.429 2.16759 163.398 2.29075C163.367 2.41391 163.289 2.52085 163.179 2.58988C163.121 2.61896 163.057 2.63535 162.991 2.6379C162.925 2.64044 162.86 2.62909 162.799 2.60464C162.738 2.58018 162.684 2.54321 162.639 2.49622C162.594 2.44924 162.56 2.39338 162.54 2.33246L162.3 1.34954C162.164 1.0297 162.124 0.85808 162.188 0.834677C162.309 0.862814 162.423 0.913119 162.524 0.982896C162.708 1.12331 162.852 1.0687 162.94 0.834677L163.068 0.444633ZM163.227 3.95503C162.964 3.95503 162.796 4.04086 162.74 4.21248C162.684 4.3841 162.82 4.35289 163.004 4.4075C163.187 4.46211 163.291 4.4075 163.291 4.21248C163.291 4.01745 163.323 3.93163 163.259 3.93163L163.227 3.95503ZM164.387 4.44649C164.443 4.38409 164.587 4.4465 164.826 4.69613C165.022 4.85704 165.163 5.07287 165.228 5.31431C165.294 5.55575 165.282 5.81111 165.194 6.04569C165.155 6.10512 165.097 6.15033 165.029 6.17432C164.961 6.1983 164.887 6.19969 164.818 6.17829C164.753 6.16408 164.692 6.13678 164.638 6.09811C164.585 6.05945 164.54 6.01028 164.507 5.95375C164.473 5.89722 164.453 5.83456 164.446 5.7698C164.439 5.70503 164.446 5.63959 164.467 5.57763C164.527 5.19334 164.51 4.80139 164.419 4.42309L164.387 4.44649Z" fill="#54565A"/>
<path d="M140.411 22.295C140.444 22.1857 140.519 22.0928 140.62 22.0349C140.72 21.977 140.84 21.9585 140.954 21.983C141.281 21.9721 141.603 22.0622 141.874 22.2404C141.994 22.5134 141.874 22.7007 141.506 22.7943C141.398 22.7969 141.296 22.8387 141.218 22.9113C141.162 22.9971 141.218 23.0361 141.442 23.0361H143.481C143.6 23.0217 143.714 22.9813 143.815 22.9178C143.916 22.8543 144.001 22.7695 144.064 22.6695C144.16 22.5199 144.27 22.379 144.392 22.2482C144.392 22.2482 144.552 22.3574 144.776 22.607L145.247 23.1687C145.199 23.3637 145.039 23.4184 144.768 23.356H143.888C143.68 23.356 143.552 23.4808 143.481 23.7226C143.409 24.0222 143.291 24.3091 143.129 24.5729C143.009 24.7913 143.041 24.9473 143.209 25.0409C143.409 25.1078 143.585 25.2307 143.714 25.3944C143.844 25.5581 143.921 25.7553 143.936 25.9614C143.968 26.2371 143.832 26.3931 143.528 26.4295C143.341 26.4053 143.168 26.3168 143.041 26.1799C142.896 26.0514 142.741 25.934 142.577 25.8288C142.474 25.7636 142.351 25.7336 142.228 25.7435C142.105 25.7533 141.989 25.8026 141.898 25.8834C140.939 26.4225 139.861 26.7276 138.756 26.7727C138.524 26.8351 138.388 26.7727 138.356 26.6245C138.433 26.5759 138.521 26.5465 138.612 26.5387C139.581 26.3717 140.505 26.0163 141.33 25.4934C141.522 25.3374 141.49 25.1969 141.242 25.0643C140.983 24.9409 140.716 24.834 140.443 24.7445C140.362 24.7139 140.273 24.712 140.191 24.7391C140.109 24.7662 140.04 24.8206 139.995 24.8927C139.827 25.275 139.483 25.3374 138.956 25.0643C138.956 25.0253 138.956 24.8771 139.091 24.6353C139.227 24.3935 139.475 23.9956 139.683 23.6758C139.891 23.3559 139.811 23.356 139.611 23.356C139.274 23.338 138.936 23.359 138.604 23.4183C138.316 23.4183 138.148 23.4183 138.108 23.2935L138.036 23.0127C138.036 22.9737 138.188 22.9581 138.436 22.9737C138.869 23.0446 139.309 23.0656 139.747 23.0361C139.855 23.0287 139.959 22.9899 140.044 22.9245C140.13 22.8592 140.193 22.7703 140.227 22.6695L140.411 22.295ZM141.09 15.4536C141.09 15.1962 141.218 15.0792 141.466 15.1104L142.321 15.2586C142.662 15.321 142.758 15.5005 142.609 15.7969C142.532 15.8699 142.439 15.9257 142.337 15.9607C142.161 16.0075 142.073 16.0543 142.081 16.0933C142.089 16.1323 142.209 16.1557 142.409 16.1557H142.905C143.006 16.1547 143.106 16.1333 143.198 16.0931C143.29 16.0528 143.373 15.9945 143.441 15.9217C143.531 15.8184 143.639 15.7313 143.76 15.6643C143.922 15.7436 144.07 15.8462 144.2 15.9685C144.275 16.0451 144.358 16.1131 144.448 16.1713C144.752 16.4521 144.744 16.6628 144.448 16.7954C144.336 16.7954 144.28 16.889 144.28 17.0762C144.28 17.2634 144.368 17.2634 144.544 17.0762C144.637 16.9527 144.744 16.8402 144.864 16.7408C145.123 17.0011 145.358 17.283 145.567 17.5833C145.567 17.7783 145.367 17.8407 145.087 17.7783H144.6C144.384 17.7783 144.28 17.8719 144.28 18.0747V19.0186C144.308 19.1603 144.308 19.306 144.28 19.4477C144.225 19.5068 144.157 19.5523 144.08 19.5803C143.992 19.5803 144.08 19.7207 144.272 19.9158C144.76 20.2434 144.816 20.5008 144.432 20.6958C144.328 20.6958 144.272 20.8362 144.272 21.0235V21.8504C144.282 21.9971 144.268 22.1445 144.232 22.2872C144.114 22.3893 143.967 22.4549 143.81 22.4757C143.654 22.4966 143.495 22.4717 143.353 22.4042C143.301 22.3084 143.279 22.2 143.289 22.0922C143.289 21.9284 143.185 21.8504 142.985 21.8504H140.139C139.931 21.8504 139.819 21.9128 139.819 22.0454C139.875 22.3262 139.723 22.4744 139.371 22.49C139.019 22.5056 138.876 22.4276 138.852 22.373C138.835 22.2357 138.835 22.0969 138.852 21.9596V19.9703C138.852 19.6895 139.004 19.6271 139.307 19.7753C139.521 19.9207 139.764 20.0208 140.02 20.0692C140.276 20.1175 140.54 20.1131 140.794 20.0562C140.836 20.0626 140.879 20.0594 140.919 20.0469C140.959 20.0344 140.996 20.0129 141.026 19.9841C141.057 19.9554 141.08 19.9201 141.093 19.8811C141.107 19.8422 141.112 19.8006 141.106 19.7597V19.3073C141.106 19.0967 141.002 18.9952 140.802 18.9952H140.195C139.987 18.9952 139.883 19.0576 139.883 19.1669C139.899 19.23 139.895 19.2964 139.873 19.3575C139.85 19.4186 139.809 19.4717 139.755 19.5101C139.63 19.5688 139.494 19.5993 139.355 19.5993C139.217 19.5993 139.08 19.5688 138.956 19.5101C138.896 19.3751 138.874 19.2271 138.892 19.0811V18.0981C138.892 17.9031 138.772 17.8095 138.532 17.8251C138.292 17.8407 138.14 17.7627 138.084 17.5911C138.028 17.4195 138.188 17.3571 138.452 17.3727C138.488 17.3846 138.527 17.3846 138.564 17.3727C138.788 17.3727 138.892 17.3025 138.892 17.1074V16.0153C138.892 15.7735 139.035 15.7033 139.283 15.8203L139.539 15.9685C139.68 16.0562 139.838 16.1146 140.003 16.1401H140.802C140.844 16.1465 140.887 16.1433 140.927 16.1308C140.967 16.1183 141.004 16.0969 141.034 16.0681C141.065 16.0393 141.088 16.004 141.101 15.9651C141.115 15.9261 141.12 15.8846 141.114 15.8437L141.09 15.4536ZM140.211 20.3604C139.955 20.3968 139.827 20.5138 139.827 20.7114V21.1951C139.82 21.2358 139.824 21.2775 139.836 21.3168C139.849 21.3561 139.871 21.3919 139.901 21.4214C139.93 21.451 139.966 21.4734 140.006 21.4869C140.046 21.5004 140.089 21.5047 140.131 21.4993H140.778C140.986 21.4993 141.09 21.4057 141.09 21.2029V20.6646C141.097 20.6239 141.093 20.5822 141.081 20.5429C141.068 20.5036 141.046 20.4678 141.016 20.4383C140.987 20.4088 140.951 20.3863 140.911 20.3728C140.871 20.3593 140.828 20.355 140.786 20.3604H140.211ZM140.259 16.4599C139.995 16.4599 139.867 16.6082 139.867 16.8032V17.1074C139.867 17.3181 139.971 17.4195 140.171 17.4195H140.778C140.82 17.4259 140.863 17.4227 140.903 17.4102C140.943 17.3977 140.98 17.3762 141.01 17.3474C141.041 17.3186 141.064 17.2834 141.077 17.2444C141.091 17.2055 141.096 17.1639 141.09 17.123V16.7642C141.097 16.7235 141.093 16.6818 141.081 16.6425C141.068 16.6032 141.046 16.5674 141.016 16.5378C140.987 16.5083 140.951 16.4859 140.911 16.4724C140.871 16.4588 140.828 16.4546 140.786 16.4599H140.259ZM141.058 18.0669C141.058 17.8485 140.962 17.7393 140.778 17.7393H140.147C139.939 17.7393 139.835 17.8329 139.835 18.0357V18.3244C139.835 18.535 139.939 18.6364 140.139 18.6364H140.746C140.788 18.6428 140.831 18.6396 140.871 18.6271C140.911 18.6146 140.948 18.5931 140.978 18.5644C141.009 18.5356 141.032 18.5003 141.045 18.4614C141.059 18.4224 141.064 18.3808 141.058 18.34V18.0669ZM142.441 23.6992C142.481 23.4573 142.441 23.3403 142.249 23.3403H141.234C141.121 23.3509 141.012 23.3903 140.92 23.4547C140.827 23.519 140.754 23.606 140.706 23.707L140.507 24.0502C140.379 24.2686 140.435 24.3856 140.682 24.4091C140.93 24.4325 141.402 24.5105 141.762 24.5807C141.962 24.6275 142.129 24.5261 142.249 24.2608C142.345 24.0875 142.42 23.9044 142.473 23.7148L142.441 23.6992ZM143.241 16.7798C143.241 16.5692 143.145 16.4599 142.953 16.4599H142.377C142.161 16.4599 142.057 16.5614 142.057 16.7564V17.1074C142.057 17.3181 142.161 17.4195 142.361 17.4195H142.929C142.971 17.4259 143.013 17.4227 143.054 17.4102C143.094 17.3977 143.131 17.3762 143.161 17.3474C143.191 17.3186 143.214 17.2834 143.228 17.2444C143.242 17.2055 143.246 17.1639 143.241 17.123V16.7798ZM143.241 18.0669C143.241 17.8485 143.153 17.7393 142.969 17.7393H142.377C142.161 17.7393 142.057 17.8329 142.057 18.0357V18.3244C142.057 18.535 142.161 18.6364 142.361 18.6364H142.929C142.971 18.6428 143.013 18.6396 143.054 18.6271C143.094 18.6146 143.131 18.5931 143.161 18.5644C143.191 18.5356 143.214 18.5003 143.228 18.4614C143.242 18.4224 143.246 18.3808 143.241 18.34V18.0669ZM143.241 19.2137C143.241 19.1781 143.233 19.1429 143.219 19.1103C143.204 19.0778 143.182 19.0488 143.155 19.0251C143.128 19.0015 143.095 18.9838 143.061 18.9733C143.026 18.9627 142.989 18.9596 142.953 18.964H142.377C142.161 18.964 142.057 19.0655 142.057 19.2605V19.7129C142.057 19.9235 142.161 20.025 142.361 20.025H142.841C142.938 20.0262 143.034 20.0081 143.123 19.9719C143.212 19.9357 143.293 19.8821 143.361 19.8143C143.497 19.6739 143.529 19.5881 143.449 19.5569C143.369 19.5257 143.233 19.4399 143.265 19.2293L143.241 19.2137ZM143.193 20.6646C143.193 20.4462 143.097 20.3448 142.905 20.3448H142.377C142.161 20.3448 142.057 20.4384 142.057 20.6334V21.1795C142.051 21.2202 142.054 21.2619 142.067 21.3012C142.08 21.3405 142.102 21.3763 142.131 21.4058C142.161 21.4354 142.197 21.4578 142.237 21.4713C142.277 21.4848 142.319 21.4891 142.361 21.4837H142.881C143.089 21.4837 143.193 21.3901 143.193 21.1873V20.6646ZM146.103 15.5628C146.103 15.2976 146.231 15.1806 146.495 15.1962C146.781 15.2098 147.067 15.2385 147.35 15.282C147.431 15.282 147.509 15.313 147.568 15.3683C147.626 15.4237 147.66 15.4991 147.662 15.5785C147.662 15.7085 147.566 15.8021 147.374 15.8593C147.214 15.8983 147.11 16.0387 147.062 16.2727C146.918 16.8656 146.75 17.4585 146.566 18.0435C146.519 18.2385 146.567 18.34 146.798 18.34H147.51C147.626 18.3328 147.74 18.3028 147.844 18.2519C147.949 18.201 148.042 18.1301 148.117 18.0435C148.304 17.8427 148.507 17.6574 148.725 17.4897C148.885 17.5518 149.033 17.6388 149.165 17.7471L149.916 18.2776C150.068 18.3868 150.108 18.4882 150.028 18.5974C149.948 18.7066 149.836 18.6676 149.58 18.6676H149.317C149.109 18.6676 148.997 18.7924 148.973 19.0421C148.917 19.6597 148.829 20.2741 148.709 20.8831C148.545 21.8075 148.257 22.7071 147.854 23.5588C147.795 23.6642 147.772 23.7851 147.787 23.9042C147.803 24.0233 147.857 24.1345 147.942 24.2218C148.402 24.8041 148.986 25.283 149.652 25.626C149.98 25.782 150.148 25.8834 150.148 25.9302C150.148 25.977 150.004 26.0473 149.756 26.1331C149.563 26.2226 149.385 26.3411 149.229 26.4841C149.093 26.6713 148.869 26.6479 148.573 26.4139C148.103 26.0097 147.693 25.5422 147.358 25.0253C147.238 24.8147 147.07 24.8225 146.87 25.0643C146.263 25.8166 145.451 26.387 144.528 26.7103C144.2 26.7805 144.04 26.7727 144.04 26.7103C144.158 26.5763 144.299 26.4629 144.456 26.3749C145.323 25.8129 146.046 25.0626 146.566 24.1828C146.622 24.0793 146.651 23.9642 146.651 23.8474C146.651 23.7306 146.622 23.6155 146.566 23.512C146.183 22.5365 145.904 21.5248 145.735 20.493C145.735 20.2902 145.591 20.3214 145.431 20.5788C145.239 20.8735 145.02 21.1504 144.776 21.4057C144.68 21.4603 144.616 21.4447 144.592 21.3433C145.59 19.5775 146.118 17.5952 146.127 15.5785L146.103 15.5628ZM148.006 18.9874C148.006 18.7768 147.942 18.6676 147.742 18.6676H146.678C146.479 18.6676 146.327 18.7924 146.215 19.0421L146.055 19.4087C146.019 19.486 146.001 19.5697 146.001 19.6544C146.001 19.7391 146.019 19.8229 146.055 19.9001C146.241 20.8855 146.544 21.8463 146.958 22.7631C147.062 22.9659 147.158 22.9347 147.262 22.6617C147.686 21.4815 147.944 20.2508 148.03 19.003L148.006 18.9874Z" fill="#54565A"/>
<path d="M156.128 15.5939C156.176 15.3027 156.328 15.1856 156.584 15.2428L157.256 15.4301C157.35 15.4263 157.443 15.4535 157.52 15.5072C157.596 15.5609 157.653 15.6381 157.679 15.7265C157.685 15.774 157.678 15.8221 157.66 15.8666C157.642 15.9111 157.614 15.9507 157.577 15.9822C157.54 16.0136 157.496 16.0358 157.448 16.047C157.401 16.0582 157.351 16.0579 157.304 16.0463C157.176 16.0463 157.072 16.179 156.976 16.4364C156.741 17.0987 156.455 17.7428 156.12 18.3632C156.008 18.566 156.12 18.6908 156.36 18.7611C156.72 18.9561 156.712 19.1511 156.36 19.3461C156.256 19.3461 156.2 19.4865 156.2 19.6972V26.2343C156.226 26.3264 156.229 26.4229 156.209 26.5163C156.19 26.6097 156.148 26.6974 156.088 26.7726C155.967 26.841 155.829 26.8771 155.689 26.8771C155.548 26.8771 155.41 26.841 155.289 26.7726C155.259 26.6363 155.259 26.4954 155.289 26.3591V20.1808C155.289 19.9624 155.185 20.0014 154.985 20.2744C154.743 20.5785 154.475 20.8629 154.186 21.1247C154.01 21.3354 153.866 21.39 153.754 21.2808C153.818 21.1316 153.904 20.9924 154.01 20.8673C155.115 19.2884 155.84 17.4854 156.128 15.5939ZM162.732 19.3383C162.732 19.0185 162.908 18.8781 163.172 18.9171C163.435 18.9561 163.779 19.0653 164.075 19.1511C164.371 19.2369 164.403 19.4319 164.291 19.6348C164.198 19.703 164.092 19.7533 163.979 19.783C163.819 19.783 163.707 19.9312 163.635 20.173C163.304 21.9804 162.683 23.7257 161.797 25.345C161.645 25.6024 161.677 25.7272 161.876 25.7272H162.956C163.085 25.7118 163.209 25.6714 163.321 25.6084C163.434 25.5455 163.533 25.4612 163.611 25.3606C163.757 25.162 163.936 24.9881 164.139 24.8457C164.508 25.0866 164.863 25.3471 165.202 25.6258C165.442 25.7506 165.506 25.8833 165.386 26.0159C165.237 26.0846 165.071 26.1116 164.906 26.0939H157.607L157.2 26.1485C156.944 26.1875 156.784 26.1485 156.736 25.9535C156.688 25.7585 156.784 25.6883 157.04 25.6961C157.222 25.7071 157.403 25.7279 157.583 25.7585H160.957C161.157 25.7585 161.309 25.6336 161.421 25.3918C162.108 23.4326 162.554 21.4004 162.748 19.3383H162.732ZM160.541 15.8123C160.541 15.5627 160.669 15.4457 160.917 15.4691C161.32 15.4719 161.716 15.5739 162.068 15.7655C162.22 16.0542 162.068 16.2414 161.725 16.3272C161.541 16.3662 161.477 16.491 161.541 16.725V17.7313C161.541 17.9342 161.637 18.0356 161.837 18.0356H162.636C162.855 18.1344 163.121 17.9706 163.435 17.5441C163.557 17.3956 163.7 17.2643 163.859 17.1541C163.969 17.2048 164.072 17.2705 164.163 17.3491L165.106 18.0512C165.194 18.1136 165.194 18.1994 165.106 18.293C164.96 18.3532 164.8 18.3747 164.643 18.3554H158.183C158.056 18.3648 157.93 18.3857 157.807 18.4178C157.527 18.4568 157.359 18.4178 157.304 18.2228C157.248 18.0278 157.391 17.9654 157.727 17.9888L158.159 18.0356H160.238C160.445 18.0356 160.549 17.942 160.549 17.747L160.541 15.8123ZM158.351 20.0872C158.218 19.8324 158.234 19.6686 158.399 19.5958C158.399 19.5958 158.543 19.7206 158.719 19.9702C159.437 21.1642 159.887 22.4938 160.038 23.8706C160.056 24.0721 160.04 24.2751 159.99 24.4713C159.854 24.8302 159.622 24.916 159.286 24.721C159.185 24.5985 159.123 24.449 159.11 24.2919C159.074 22.8561 158.818 21.4336 158.351 20.0716V20.0872Z" fill="#54565A"/>
<path d="M139.843 30.634C139.843 30.361 139.971 30.2596 140.235 30.322C140.499 30.3844 140.819 30.439 141.114 30.5092C141.173 30.5276 141.227 30.558 141.272 30.5984C141.318 30.6388 141.354 30.6881 141.378 30.7432C141.458 30.9539 141.378 31.1177 141.05 31.2347C140.979 31.2589 140.918 31.306 140.877 31.3683C140.837 31.4306 140.819 31.5045 140.827 31.5779V32.9743C140.827 33.2239 140.923 33.2239 141.114 32.9743L141.226 32.8183C141.418 32.5608 141.538 32.436 141.57 32.436C141.754 32.6002 141.923 32.7804 142.074 32.9743C142.298 33.2785 142.386 33.4501 142.338 33.4969C142.19 33.5513 142.031 33.5727 141.874 33.5593H141.138C140.931 33.5593 140.827 33.6763 140.827 33.926C140.831 34.0576 140.868 34.1863 140.933 34.3015C140.998 34.4168 141.091 34.5153 141.202 34.5891C142.098 35.3692 142.466 35.9854 142.298 36.4925C142.002 36.7733 141.746 36.7421 141.498 36.4067C141.25 36.0713 141.162 35.6266 141.011 35.2366C140.875 34.9713 140.811 34.9713 140.811 35.2366V41.4227C140.821 41.5668 140.807 41.7117 140.771 41.8517C140.659 41.9375 140.527 41.9928 140.386 42.012C140.246 42.0312 140.102 42.0136 139.971 41.9609C139.903 41.8921 139.855 41.8063 139.832 41.7129C139.81 41.6195 139.813 41.5219 139.843 41.4305V36.1726C139.843 35.8918 139.795 35.884 139.707 36.1726C139.465 36.9402 139.083 37.659 138.58 38.2945C138.364 38.5363 138.228 38.6534 138.18 38.6534C138.132 38.6534 138.132 38.4739 138.252 38.1619C138.972 36.8194 139.459 35.3695 139.691 33.8714C139.691 33.6764 139.619 33.5828 139.412 33.5828C139.204 33.5828 138.788 33.6373 138.468 33.6919C138.468 33.6919 138.396 33.5828 138.356 33.4189C138.316 33.2551 138.444 33.1849 138.7 33.2005L139.499 33.2473C139.541 33.2537 139.584 33.2506 139.624 33.2381C139.664 33.2256 139.701 33.204 139.731 33.1753C139.762 33.1465 139.785 33.1112 139.799 33.0723C139.812 33.0333 139.817 32.9917 139.811 32.9509L139.843 30.634ZM142.729 33.4579C142.729 33.2083 142.729 33.0835 142.729 33.0757C142.802 33.0851 142.87 33.1119 142.929 33.1537C143.103 33.2271 143.272 33.3132 143.433 33.4111C143.577 33.5075 143.741 33.5739 143.913 33.6062H147.438C147.54 33.6057 147.642 33.5847 147.735 33.5444C147.829 33.5042 147.913 33.4455 147.982 33.3721C148.07 33.27 148.176 33.183 148.294 33.1147C148.46 33.1903 148.611 33.2932 148.741 33.4189C149.021 33.6218 149.173 33.7856 149.189 33.9104C149.205 34.0352 149.189 34.16 148.965 34.2458C148.741 34.3316 148.789 34.394 148.789 34.5735V36.9137C148.798 37.063 148.784 37.2128 148.749 37.3584C148.639 37.4453 148.508 37.5043 148.369 37.5302C148.229 37.556 148.085 37.5479 147.95 37.5066C147.83 37.5066 147.782 37.3896 147.798 37.218C147.814 37.0463 147.694 37.0619 147.494 37.0619H146.375C146.175 37.0619 146.063 37.1868 146.031 37.4286L145.975 38.0292C145.975 38.2555 146.023 38.3647 146.215 38.3647H147.75C147.963 38.4583 148.23 38.2945 148.55 37.8733C148.639 37.7733 148.765 37.711 148.9 37.6994C149.036 37.6878 149.171 37.7277 149.277 37.8108L149.781 38.2009C150.084 38.3491 150.14 38.5051 149.949 38.6611C149.805 38.6769 149.66 38.6769 149.517 38.6611H146.535C146.335 38.6611 146.311 38.7782 146.471 39.0278C147.297 39.9803 148.475 40.5771 149.749 40.6894C150.069 40.6894 150.228 40.7596 150.228 40.822C150.228 40.8844 150.124 41.0092 149.973 41.0326C149.692 41.1622 149.466 41.3828 149.333 41.6567C149.261 41.8127 149.093 41.8595 148.813 41.7893C148.194 41.5739 147.624 41.2401 147.138 40.8075C146.652 40.3749 146.26 39.8521 145.983 39.2696C145.903 39.0746 145.823 39.1058 145.727 39.371C145.413 40.1002 144.848 40.6991 144.128 41.0638C143.428 41.4535 142.662 41.7177 141.866 41.8439C141.514 41.8439 141.346 41.8439 141.37 41.7893C141.474 41.6858 141.599 41.6059 141.738 41.5553C142.074 41.4382 142.41 41.3134 142.745 41.1652C143.251 40.9764 143.707 40.6783 144.078 40.2932C144.449 39.9082 144.726 39.4463 144.888 38.942C144.888 38.7392 144.84 38.6455 144.64 38.6455H142.537L142.122 38.7079C141.874 38.7079 141.714 38.6689 141.658 38.4817C141.602 38.2945 141.746 38.2477 142.09 38.2789L142.513 38.3257H144.68C144.88 38.3257 145 38.2009 145.032 37.9513V37.3272C145.032 37.1244 144.936 37.0229 144.728 37.0229H143.977C143.769 37.0229 143.665 37.0697 143.665 37.1555C143.665 37.4676 143.361 37.5846 142.865 37.4988C142.713 37.4286 142.657 37.2569 142.713 36.9995L142.729 33.4579ZM143.681 30.6574C143.681 30.3922 143.849 30.2908 144.176 30.3454C144.648 30.3454 144.976 30.478 145.08 30.673C145.184 30.868 145.08 31.0319 144.816 31.1333C144.77 31.1533 144.731 31.1862 144.704 31.2278C144.677 31.2695 144.663 31.318 144.664 31.3673C144.664 31.5077 144.768 31.5779 144.968 31.5779H146.343C146.385 31.5844 146.427 31.5812 146.468 31.5687C146.508 31.5561 146.545 31.5347 146.575 31.5059C146.605 31.4771 146.628 31.4419 146.642 31.4029C146.656 31.364 146.66 31.3224 146.655 31.2815V30.6964C146.655 30.4468 146.655 30.3142 146.703 30.2908C147.063 30.3177 147.421 30.3698 147.774 30.4468C147.834 30.4638 147.89 30.4926 147.938 30.5315C147.986 30.5704 148.026 30.6186 148.054 30.673C148.11 30.9226 147.99 31.102 147.678 31.1957C147.598 31.4843 147.63 31.6091 147.766 31.5779C147.902 31.5467 148.006 31.4765 148.214 31.2737L148.358 31.1255C148.398 31.069 148.45 31.0213 148.51 30.9853C148.57 30.9493 148.637 30.9258 148.707 30.9163C148.776 30.9068 148.848 30.9114 148.915 30.93C148.983 30.9485 149.047 30.9806 149.101 31.0241L149.517 31.3439C149.662 31.4382 149.794 31.5511 149.909 31.6794C149.869 31.8978 149.677 31.9758 149.309 31.9134H147.95C147.742 31.9134 147.638 32.007 147.638 32.202V32.5842C147.652 32.7429 147.63 32.9027 147.574 33.0523C147.454 33.1434 147.31 33.1991 147.158 33.213C147.007 33.2268 146.854 33.1981 146.719 33.1303C146.661 32.9919 146.639 32.842 146.655 32.6935V32.1942C146.661 32.1535 146.658 32.1118 146.645 32.0725C146.632 32.0332 146.61 31.9974 146.581 31.9678C146.551 31.9383 146.515 31.9159 146.475 31.9024C146.435 31.8889 146.393 31.8846 146.351 31.8899H144.984C144.768 31.8899 144.664 31.9836 144.664 32.1786V32.4672C144.682 32.6234 144.66 32.7815 144.6 32.9275C144.48 33.0235 144.333 33.081 144.179 33.0922C144.024 33.1034 143.87 33.0676 143.737 32.9899C143.737 32.9899 143.681 32.8104 143.681 32.5608V32.1942C143.681 31.9914 143.585 31.8899 143.385 31.8899C143.043 31.8659 142.699 31.8843 142.362 31.9446C142.09 31.9446 141.938 31.9056 141.898 31.7495C141.858 31.5935 141.946 31.4843 142.202 31.4921C142.586 31.5617 142.979 31.5827 143.369 31.5545C143.411 31.5609 143.453 31.5578 143.494 31.5453C143.534 31.5328 143.571 31.5112 143.601 31.4825C143.631 31.4537 143.654 31.4184 143.668 31.3795C143.682 31.3405 143.686 31.299 143.681 31.2581V30.6574ZM144.088 33.926C143.833 33.926 143.713 34.082 143.713 34.2848V34.8231C143.713 35.0259 143.809 35.1273 144.009 35.1273H147.502C147.71 35.1273 147.814 35.0337 147.814 34.8309V34.2302C147.821 34.1895 147.817 34.1478 147.804 34.1085C147.792 34.0692 147.77 34.0334 147.74 34.0039C147.711 33.9743 147.675 33.9519 147.635 33.9384C147.595 33.9249 147.552 33.9206 147.51 33.926H144.088ZM147.814 35.767C147.814 35.5564 147.718 35.4472 147.526 35.4472H144.024C143.983 35.4407 143.94 35.4439 143.9 35.4564C143.859 35.4689 143.823 35.4904 143.793 35.5192C143.762 35.548 143.739 35.5832 143.725 35.6222C143.712 35.6611 143.707 35.7027 143.713 35.7436V36.3911C143.713 36.6017 143.809 36.7031 144.009 36.7031H147.502C147.544 36.7095 147.587 36.7064 147.627 36.6938C147.667 36.6813 147.704 36.6599 147.734 36.6311C147.764 36.6023 147.787 36.567 147.801 36.5281C147.815 36.4891 147.819 36.4476 147.814 36.4067V35.767Z" fill="#54565A"/>
<path d="M159.094 37.569C159.094 37.3194 159.222 37.2023 159.47 37.2413C159.861 37.2466 160.246 37.3372 160.597 37.5066C160.635 37.5475 160.662 37.5966 160.676 37.6497C160.69 37.7028 160.69 37.7584 160.678 37.8119C160.665 37.8654 160.64 37.9152 160.604 37.9571C160.567 37.999 160.521 38.0317 160.469 38.0527C160.125 38.0527 159.998 38.2165 160.086 38.4817C160.08 38.5216 160.084 38.5621 160.098 38.6002C160.111 38.6382 160.133 38.6726 160.163 38.7007C160.192 38.7287 160.228 38.7497 160.268 38.7618C160.307 38.7739 160.349 38.7768 160.389 38.7703H161.373C161.589 38.8717 161.844 38.7079 162.172 38.2867C162.439 37.9902 162.705 37.9356 162.972 38.1228L163.771 38.7157C163.907 38.8249 163.931 38.9264 163.835 39.02C163.69 39.0835 163.53 39.1078 163.371 39.0902H160.437C160.395 39.0841 160.352 39.0874 160.312 39.0999C160.271 39.1124 160.234 39.1337 160.203 39.1623C160.172 39.1909 160.149 39.2259 160.134 39.2648C160.119 39.3037 160.113 39.3453 160.117 39.3866V40.7128C160.117 40.9234 160.221 41.0248 160.421 41.0248H163.02C163.279 40.9918 163.515 40.86 163.675 40.6581C163.824 40.4594 164.001 40.2833 164.203 40.1355C164.555 40.3773 164.906 40.6269 165.258 40.9156C165.506 41.0326 165.562 41.1652 165.434 41.3056C165.306 41.446 165.226 41.368 164.97 41.368H154.761C154.634 41.3774 154.508 41.3983 154.385 41.4305C154.105 41.4305 153.946 41.4304 153.898 41.251C153.85 41.0716 153.898 40.9702 154.193 40.978C154.376 40.9886 154.557 41.0094 154.737 41.0404H158.782C158.824 41.0468 158.867 41.0436 158.907 41.0311C158.947 41.0186 158.984 40.9972 159.014 40.9684C159.045 40.9396 159.068 40.9043 159.081 40.8654C159.095 40.8264 159.1 40.7849 159.094 40.744V39.4178C159.1 39.3768 159.097 39.3349 159.084 39.2953C159.071 39.2558 159.05 39.2196 159.02 39.1895C158.991 39.1594 158.955 39.1362 158.915 39.1217C158.875 39.1072 158.833 39.1018 158.79 39.1058H156.176C156.047 39.1151 155.918 39.136 155.792 39.1682C155.521 39.215 155.353 39.1682 155.305 38.9888C155.257 38.8094 155.305 38.7079 155.593 38.7157L156.16 38.786H158.782C158.99 38.786 159.094 38.6923 159.094 38.4973V37.569ZM158.527 30.712C158.573 30.647 158.633 30.5922 158.702 30.5511C158.772 30.5099 158.849 30.4834 158.93 30.4731C159.01 30.4628 159.092 30.469 159.17 30.4914C159.248 30.5137 159.32 30.5517 159.382 30.6028L160.142 31.1411C160.169 31.1523 160.193 31.1692 160.213 31.1906C160.232 31.2121 160.247 31.2375 160.255 31.2651C160.264 31.2927 160.266 31.3218 160.261 31.3502C160.257 31.3787 160.246 31.4058 160.229 31.4297C160.154 31.4821 160.067 31.5177 159.976 31.5338C159.885 31.55 159.791 31.5465 159.702 31.5233H159.07C159.028 31.5169 158.986 31.5201 158.945 31.5326C158.905 31.5451 158.868 31.5666 158.838 31.5954C158.808 31.6241 158.785 31.6594 158.771 31.6983C158.757 31.7373 158.753 31.7789 158.758 31.8198V33.5672C158.758 33.7622 158.87 33.7466 159.11 33.5125L159.238 33.3955C159.277 33.3419 159.326 33.2965 159.384 33.2621C159.441 33.2278 159.505 33.2052 159.572 33.1957C159.638 33.1862 159.706 33.19 159.771 33.207C159.836 33.2239 159.897 33.2535 159.95 33.2941L160.453 33.6764C160.781 33.848 160.845 34.004 160.629 34.1522C160.096 34.1522 159.577 34.1522 159.07 34.1522C159.028 34.1458 158.986 34.149 158.945 34.1615C158.905 34.174 158.868 34.1955 158.838 34.2243C158.808 34.253 158.785 34.2883 158.771 34.3272C158.757 34.3662 158.753 34.4078 158.758 34.4487V37.3038C158.806 37.8732 158.519 38.0839 157.903 37.9044C157.815 37.842 157.775 37.6938 157.775 37.452V34.4642C157.781 34.4232 157.778 34.3813 157.765 34.3418C157.752 34.3022 157.73 34.266 157.701 34.2359C157.672 34.2058 157.636 34.1827 157.596 34.1682C157.556 34.1537 157.514 34.1482 157.471 34.1522H156.816C156.616 34.1522 156.496 34.277 156.448 34.5266C156.417 35.235 156.204 35.9243 155.828 36.531C155.452 37.1377 154.926 37.6423 154.297 37.9981C153.986 38.1307 153.93 38.0527 154.137 37.7562C155.022 36.8707 155.521 35.6852 155.529 34.4487C155.535 34.409 155.532 34.3683 155.52 34.3299C155.507 34.2915 155.486 34.2566 155.457 34.2277C155.428 34.1989 155.393 34.177 155.354 34.1639C155.315 34.1508 155.274 34.1468 155.233 34.1522C154.941 34.1366 154.648 34.1576 154.361 34.2146C154.081 34.2614 153.922 34.2146 153.874 34.0196C153.826 33.8246 153.93 33.7544 154.193 33.7778C154.536 33.8424 154.885 33.8607 155.233 33.8324C155.433 33.8324 155.545 33.7154 155.569 33.4657C155.569 32.9197 155.569 32.3658 155.569 31.8119C155.569 31.6013 155.449 31.5077 155.193 31.5155L154.881 31.5623C154.609 31.5623 154.449 31.5623 154.401 31.3673C154.353 31.1723 154.441 31.102 154.705 31.1098L155.241 31.1801H157.751C158.015 31.3049 158.271 31.141 158.527 30.712ZM157.775 31.8431C157.775 31.6325 157.679 31.5233 157.487 31.5233H156.928C156.712 31.5233 156.608 31.6247 156.608 31.8198L156.568 33.5672C156.562 33.607 156.566 33.6476 156.58 33.6856C156.593 33.7236 156.616 33.7581 156.645 33.7861C156.675 33.8142 156.711 33.8351 156.75 33.8472C156.789 33.8593 156.831 33.8622 156.872 33.8558H157.487C157.703 33.8558 157.807 33.7622 157.807 33.5672L157.775 31.8431ZM161.149 31.2581C161.149 30.9928 161.277 30.8759 161.525 30.8993C161.772 30.9227 162.116 30.9773 162.404 31.0319C162.692 31.0865 162.724 31.3595 162.46 31.6247L162.156 31.7495C162.139 31.8581 162.139 31.9685 162.156 32.0772V35.8138C162.244 36.2741 162.004 36.4847 161.437 36.4535C161.17 36.4535 161.082 36.2897 161.173 35.962L161.149 31.2581ZM163.603 30.9383C163.603 30.6808 163.731 30.5716 163.995 30.6028L164.363 30.6496C164.583 30.6708 164.799 30.7261 165.002 30.8134C165.035 30.8237 165.066 30.8406 165.092 30.8632C165.118 30.8857 165.139 30.9133 165.153 30.9442C165.167 30.9751 165.175 31.0086 165.175 31.0425C165.175 31.0764 165.168 31.11 165.154 31.1411C165.106 31.2815 164.938 31.3907 164.65 31.4765C164.604 31.585 164.588 31.7032 164.603 31.8198V36.5861C164.658 37.2492 164.315 37.6548 163.563 37.803C163.315 37.803 163.172 37.8031 163.148 37.6782C163.036 37.4226 162.831 37.2167 162.572 37.1009C162.421 37.033 162.276 36.9521 162.14 36.8591V36.7499C162.14 36.7031 162.316 36.6875 162.564 36.6953L163.036 36.7499C163.459 36.8279 163.651 36.6719 163.611 36.2662L163.603 30.9383Z" fill="#54565A"/>
<path d="M174.78 30.5794C174.78 30.3142 174.916 30.205 175.172 30.244L176.051 30.4156C176.339 30.5092 176.443 30.6497 176.371 30.8525C176.335 30.9164 176.285 30.9714 176.224 31.0133C176.163 31.0552 176.093 31.083 176.019 31.0943C175.95 31.1074 175.887 31.1445 175.843 31.1989C175.799 31.2534 175.776 31.3214 175.78 31.3907C175.78 31.5545 175.875 31.6326 176.083 31.6326H178.058C178.314 31.6072 178.55 31.4838 178.714 31.2893L179.113 30.8837C179.165 30.8317 179.224 30.7871 179.289 30.7511C179.448 30.8147 179.596 30.9015 179.729 31.0085L180.36 31.4531C180.704 31.6482 180.784 31.812 180.584 31.9524H180.161H171.558C171.35 31.9524 171.246 32.046 171.246 32.2488V34.3707C171.252 35.8313 171.113 37.2891 170.831 38.7236C170.647 39.8167 170.154 40.838 169.408 41.6723C169.388 41.7255 169.348 41.7691 169.295 41.7938C169.243 41.8185 169.183 41.8225 169.128 41.8049C169.128 41.8049 169.128 41.6489 169.216 41.3915C169.561 40.6068 169.794 39.7802 169.911 38.9342C170.123 37.5364 170.24 36.1266 170.263 34.7139V31.8042C170.236 31.5448 170.236 31.2835 170.263 31.0241C170.263 31.0241 170.455 31.0241 170.735 31.2113C171.215 31.5546 171.534 31.7028 171.766 31.6482H174.46C174.668 31.6482 174.772 31.5546 174.772 31.3595L174.78 30.5794ZM175.388 32.6779C175.388 32.4283 175.388 32.2956 175.452 32.2878C175.771 32.3346 176.091 32.397 176.411 32.4672C176.731 32.5375 176.915 32.6389 176.939 32.8729C176.941 32.9549 176.915 33.0353 176.864 33.1006C176.813 33.1659 176.741 33.2122 176.659 33.2318C176.62 33.2296 176.581 33.2353 176.544 33.2485C176.507 33.2616 176.473 33.282 176.445 33.3083C176.417 33.3346 176.394 33.3662 176.378 33.4014C176.363 33.4365 176.355 33.4744 176.355 33.5126C176.355 33.5126 176.483 33.5672 176.683 33.5672H177.922C178.138 33.6608 178.386 33.497 178.674 33.0757C178.945 32.7897 179.212 32.7351 179.473 32.9119L180.273 33.4814C180.424 33.5984 180.456 33.7154 180.36 33.809C180.213 33.8759 180.05 33.9028 179.889 33.887H176.691C176.483 33.887 176.379 33.9806 176.379 34.1756V34.8309C176.379 35.0338 176.475 35.1352 176.683 35.1352H178.002C178.118 35.128 178.232 35.098 178.337 35.0471C178.441 34.9962 178.534 34.9253 178.61 34.8387C178.735 34.7135 178.868 34.5962 179.009 34.4877C179.065 34.4877 179.233 34.5969 179.497 34.8699C180.121 35.3536 180.209 35.7046 179.769 35.9386C179.678 35.9647 179.599 36.0195 179.544 36.0944C179.489 36.1693 179.461 36.26 179.465 36.3521V38.4349C179.545 38.9264 179.313 39.1448 178.77 39.0746C178.556 39.0434 178.46 38.9342 178.482 38.747C178.482 38.6066 178.378 38.5364 178.178 38.5364H176.691C176.483 38.5364 176.379 38.63 176.379 38.8328V39.4725C176.379 39.6753 176.475 39.7767 176.683 39.7767H178.514C178.727 39.8807 178.993 39.7169 179.313 39.2853C179.432 39.1342 179.575 39.0025 179.737 38.8952C180.106 39.1361 180.461 39.3965 180.8 39.6753C181.024 39.7689 181.088 39.9015 180.984 40.0654C180.839 40.1289 180.679 40.1532 180.52 40.1355H176.715C176.673 40.1291 176.63 40.1323 176.59 40.1448C176.55 40.1573 176.513 40.1788 176.483 40.2076C176.453 40.2363 176.43 40.2716 176.416 40.3106C176.402 40.3495 176.398 40.3911 176.403 40.432V41.4695C176.413 41.6137 176.4 41.7585 176.363 41.8985C176.252 41.9843 176.119 42.0397 175.979 42.0589C175.838 42.078 175.695 42.0604 175.564 42.0078C175.495 41.9389 175.447 41.8532 175.425 41.7598C175.402 41.6664 175.406 41.5688 175.436 41.4773V40.3852C175.442 40.3441 175.439 40.3022 175.426 40.2627C175.413 40.2231 175.391 40.1869 175.362 40.1568C175.333 40.1267 175.297 40.1036 175.257 40.0891C175.217 40.0746 175.174 40.0691 175.132 40.0731H172.214C172.087 40.0818 171.961 40.1028 171.838 40.1355C171.558 40.1823 171.39 40.1355 171.342 39.9561C171.295 39.7767 171.342 39.6753 171.646 39.6831C171.831 39.6923 172.016 39.7132 172.198 39.7455H175.124C175.166 39.7519 175.208 39.7488 175.249 39.7363C175.289 39.7237 175.326 39.7022 175.356 39.6734C175.386 39.6447 175.409 39.6094 175.423 39.5705C175.437 39.5315 175.441 39.4899 175.436 39.449V38.8094C175.442 38.7686 175.439 38.727 175.426 38.6877C175.413 38.6484 175.391 38.6126 175.362 38.583C175.332 38.5535 175.296 38.5311 175.256 38.5176C175.216 38.504 175.174 38.4998 175.132 38.5052H173.621C173.413 38.5052 173.309 38.5598 173.309 38.6768C173.324 38.7399 173.32 38.806 173.297 38.8669C173.275 38.9278 173.234 38.981 173.181 39.02C173.056 39.0771 172.92 39.1067 172.782 39.1067C172.643 39.1067 172.507 39.0771 172.382 39.02C172.334 38.9732 172.318 38.8328 172.318 38.5832V34.9948C172.318 34.7529 172.454 34.6905 172.71 34.7998C172.787 34.8552 172.87 34.9023 172.957 34.9402C173.106 35.0248 173.268 35.0854 173.437 35.1196H175.116C175.324 35.1196 175.428 35.026 175.428 34.8231V34.1756C175.434 34.1349 175.431 34.0933 175.418 34.054C175.405 34.0147 175.383 33.9789 175.354 33.9493C175.324 33.9198 175.288 33.8973 175.248 33.8838C175.208 33.8703 175.166 33.8661 175.124 33.8714H172.606L172.206 33.926C171.934 33.9728 171.782 33.926 171.734 33.731C171.686 33.536 171.79 33.4658 172.038 33.4736L172.582 33.5516H175.116C175.158 33.558 175.2 33.5548 175.241 33.5423C175.281 33.5298 175.318 33.5083 175.348 33.4795C175.378 33.4508 175.401 33.4155 175.415 33.3766C175.429 33.3376 175.433 33.296 175.428 33.2551L175.388 32.6779ZM173.717 35.455C173.437 35.494 173.293 35.6032 173.293 35.7671V36.3443C173.293 36.5471 173.389 36.6486 173.597 36.6486H175.108C175.15 36.655 175.192 36.6518 175.233 36.6393C175.273 36.6268 175.31 36.6053 175.34 36.5765C175.37 36.5477 175.393 36.5125 175.407 36.4735C175.421 36.4346 175.425 36.393 175.42 36.3521V35.7671C175.42 35.5564 175.316 35.455 175.116 35.455H173.717ZM175.42 37.296C175.42 37.0854 175.324 36.984 175.132 36.984H173.605C173.397 36.984 173.293 37.0776 173.293 37.2726V37.8655C173.293 38.0683 173.389 38.1697 173.597 38.1697H175.108C175.316 38.1697 175.42 38.0761 175.42 37.8811V37.296ZM178.506 35.7749C178.506 35.5642 178.41 35.455 178.218 35.455H176.715C176.673 35.4486 176.63 35.4518 176.59 35.4643C176.55 35.4768 176.513 35.4983 176.483 35.527C176.453 35.5558 176.43 35.5911 176.416 35.63C176.402 35.669 176.398 35.7106 176.403 35.7514V36.3443C176.403 36.5471 176.499 36.6486 176.707 36.6486H178.186C178.402 36.6486 178.506 36.5471 178.506 36.3521V35.7749ZM178.506 37.296C178.506 37.0854 178.41 36.984 178.218 36.984H176.715C176.507 36.984 176.403 37.0776 176.403 37.2726V37.8655C176.403 38.0683 176.499 38.1697 176.707 38.1697H178.186C178.402 38.1697 178.506 38.0761 178.506 37.8811V37.296Z" fill="#54565A"/>
<path d="M0.872391 36.0947H1.09624L1.13623 36.1493C1.1762 36.2311 1.2273 36.3072 1.28813 36.3755H4.69386H4.90173C4.94946 36.3269 4.98504 36.2682 5.00566 36.204V36.1182H5.27748V37.3351C5.28225 37.387 5.28225 37.4392 5.27748 37.4911C5.1944 37.518 5.10865 37.5363 5.02164 37.5457C4.94057 37.4232 4.87355 37.2924 4.82177 37.1556C4.78634 37.0539 4.738 36.957 4.67788 36.867C4.65496 36.8353 4.62076 36.813 4.58194 36.8046C4.51799 36.8046 4.27014 36.8046 3.82244 36.8046H3.56662C3.56662 36.8904 3.56662 36.9684 3.56662 37.023V38.5208V39.6286V40.0888C3.56111 40.2102 3.57734 40.3317 3.61459 40.4476C3.6817 40.4713 3.75147 40.487 3.82244 40.4944L4.08628 40.549L4.27814 40.6037C4.28098 40.6556 4.28098 40.7077 4.27814 40.7596C4.28074 40.7908 4.28074 40.8221 4.27814 40.8532H4.15022C3.90505 40.8532 3.69719 40.8532 3.52664 40.8532C3.35075 40.8532 3.03897 40.8532 2.59127 40.8532L1.95968 40.9001H1.69584C1.69254 40.8715 1.69254 40.8428 1.69584 40.8143V40.705C1.77795 40.6248 1.88458 40.5727 1.99965 40.5568C2.17556 40.5233 2.34716 40.471 2.51132 40.4008C2.52494 40.3444 2.52494 40.2856 2.51132 40.2292C2.51132 39.9484 2.51132 39.5037 2.51132 38.8875V37.5691C2.51132 37.2025 2.51132 36.984 2.51132 36.906V36.8592H2.45535C2.3834 36.8592 2.14356 36.8592 1.73583 36.8592C1.58116 36.8494 1.42607 36.8707 1.28013 36.9216C1.10244 37.0571 0.946204 37.2175 0.816447 37.3975C0.760484 37.4755 0.712513 37.5067 0.688529 37.5067C0.610611 37.4725 0.537944 37.4279 0.472656 37.3741C0.603075 37.0791 0.707399 36.7737 0.784461 36.4613L0.872391 36.0947Z" fill="#54565A"/>
<path d="M5.07617 40.822V40.5802L5.316 40.5333C5.43286 40.5177 5.5463 40.4834 5.65179 40.4319C5.71362 40.3778 5.7627 40.3113 5.79569 40.2369L6.52321 38.3881L7.37065 36.2117H7.7624V36.274L8.38599 37.7172C8.5219 38.0215 8.64982 38.3179 8.76174 38.6065C8.87367 38.8951 8.96959 39.1292 9.04954 39.3086C9.12949 39.488 9.16946 39.5816 9.24941 39.8001C9.3058 39.955 9.37256 40.1061 9.44927 40.2525C9.47427 40.3148 9.50936 40.3727 9.55321 40.4241C9.61599 40.4629 9.68715 40.487 9.76108 40.4944C9.86796 40.5074 9.97271 40.5336 10.0729 40.5723C10.0782 40.6294 10.0782 40.6869 10.0729 40.744C10.0758 40.7699 10.0758 40.7961 10.0729 40.822H9.48924H8.91362H8.5059H7.8983H7.72242C7.72242 40.744 7.72242 40.666 7.72242 40.588L8.11415 40.5099C8.18659 40.4966 8.25663 40.473 8.32202 40.4397C8.34632 40.4173 8.36069 40.3865 8.36201 40.3539C8.36586 40.3229 8.36586 40.2914 8.36201 40.2603L8.21808 39.9171L7.93829 39.2384H6.62715C6.57118 39.3476 6.46726 39.6207 6.30736 40.0185C6.27116 40.1001 6.24951 40.1872 6.24339 40.2759C6.24144 40.2989 6.24473 40.322 6.25303 40.3436C6.26132 40.3651 6.27441 40.3847 6.29136 40.4007C6.38424 40.4598 6.49229 40.4923 6.60316 40.4944L6.859 40.5333C6.859 40.6192 6.859 40.6737 6.859 40.7128C6.859 40.7518 6.859 40.7596 6.859 40.7908C6.7071 40.7908 6.35532 40.7908 5.79569 40.7284H5.65179C5.48299 40.7587 5.31178 40.7744 5.14014 40.7752L5.07617 40.822ZM6.76307 38.8561H7.84233C7.77038 38.6455 7.67446 38.4037 7.56254 38.1307C7.45061 37.8576 7.35467 37.647 7.28272 37.4988L6.76307 38.8561Z" fill="#54565A"/>
<path d="M10.4648 40.8221V40.5725L10.6967 40.51C10.8184 40.489 10.9367 40.4523 11.0485 40.4009C11.0936 40.3056 11.1155 40.2015 11.1124 40.0966V38.7003C11.1124 38.24 11.1124 37.9982 11.1124 37.9826V37.5223V37.3351V36.9295V36.7812V36.672C10.9614 36.6173 10.8018 36.5883 10.6407 36.5862H10.5128V36.2742L11.5362 36.321H11.776H12.4555H12.7833V36.438C12.7867 36.4874 12.7867 36.5369 12.7833 36.5862C12.6778 36.6288 12.5679 36.6601 12.4555 36.6798C12.3548 36.7041 12.2559 36.7353 12.1597 36.7734C12.1495 36.859 12.1495 36.9454 12.1597 37.0309C12.1551 37.114 12.1551 37.1974 12.1597 37.2805C12.1597 37.6706 12.1597 37.9748 12.1597 38.1854V39.1137V39.5817V40.276V40.4087C12.153 40.4343 12.153 40.4611 12.1597 40.4867L12.5595 40.5569H12.7753C12.7753 40.6271 12.7753 40.6895 12.7753 40.7363C12.7753 40.7831 12.7753 40.7987 12.7753 40.8533H12.4795L12.0078 40.8065H11.3682C11.2483 40.8065 11.0644 40.8065 10.8166 40.8065L10.4648 40.8221Z" fill="#54565A"/>
<path d="M13.2715 36.555V36.3365H13.3355H13.9351H14.3907H14.8544C14.8594 36.3491 14.8594 36.363 14.8544 36.3755V36.5394L14.7185 36.6095C14.6226 36.6642 14.5746 36.7032 14.5746 36.7344C14.5792 36.7757 14.5928 36.8156 14.6146 36.8514C14.6146 36.8514 14.6146 36.9294 14.6706 36.9918C14.7265 37.0542 14.8225 37.3896 15.0143 37.8265L15.9417 39.9405C16.0616 39.7143 16.2535 39.3477 16.5093 38.8172L15.9897 37.5925C15.8857 37.3584 15.8058 37.1712 15.7339 37.023L15.6699 36.8826C15.6699 36.8826 15.6699 36.8202 15.6139 36.7734C15.585 36.7296 15.5468 36.6924 15.502 36.6642C15.3869 36.614 15.2662 36.5774 15.1422 36.555V36.3443H15.454H15.8298H16.3335H16.9491H17.021V36.5082C17.0236 36.5263 17.0236 36.5446 17.021 36.5627H16.8291C16.7846 36.5515 16.7378 36.5515 16.6932 36.5627C16.6839 36.5853 16.6839 36.6105 16.6932 36.633C16.6984 36.7228 16.7229 36.8105 16.7652 36.8904C16.7652 36.9372 16.8131 36.9996 16.8531 37.0932C16.973 37.3897 17.061 37.6081 17.1249 37.7485L17.3808 37.2414C17.4666 37.0747 17.5414 36.9027 17.6046 36.7266C17.6085 36.706 17.6085 36.6848 17.6046 36.6642C17.5843 36.6367 17.5566 36.6151 17.5247 36.6018C17.428 36.5579 17.3259 36.5264 17.2209 36.5082C17.2209 36.4614 17.2209 36.4302 17.2209 36.4068C17.2209 36.3834 17.2209 36.3443 17.2209 36.2897H17.8924H18.3081H18.556V36.4926C18.398 36.5344 18.2431 36.5865 18.0923 36.6486C18.0368 36.6964 17.9884 36.7515 17.9484 36.8124C17.8285 37.0152 17.6126 37.4443 17.2848 38.0995L17.5167 38.6144L17.9084 39.5115L17.9884 39.7143L18.4441 38.5598L19.0756 36.9996L19.1716 36.7032C19.1755 36.6852 19.1755 36.6666 19.1716 36.6486V36.5862L18.9717 36.5316L18.8358 36.4769C18.8331 36.4276 18.8331 36.3781 18.8358 36.3287C18.8311 36.3056 18.8311 36.2817 18.8358 36.2585H18.8918H19.4274H19.7872H19.8591C19.8621 36.2975 19.8621 36.3366 19.8591 36.3755C19.8707 36.4084 19.8707 36.4441 19.8591 36.4769C19.8359 36.4853 19.8104 36.4853 19.7872 36.4769C19.714 36.511 19.6466 36.5557 19.5873 36.6095C19.5409 36.6831 19.5033 36.7617 19.4754 36.8436C19.2675 37.3897 19.0596 37.9201 18.8358 38.4038C18.6119 38.8874 18.2842 39.7143 17.8525 40.822H17.4927C17.4736 40.7493 17.4468 40.6787 17.4127 40.6114C17.3641 40.5189 17.3239 40.4223 17.2928 40.3228L16.8931 39.4335C16.847 39.3186 16.7936 39.2065 16.7332 39.098C16.7317 39.0825 16.7317 39.0668 16.7332 39.0512L16.3494 39.7533C16.1016 40.2058 15.9177 40.5334 15.8058 40.8142H15.4221C15.2758 40.4106 15.1077 40.0148 14.9184 39.6285L13.7592 36.9918C13.6935 36.8215 13.6076 36.6591 13.5033 36.5082C13.4696 36.4837 13.4317 36.4652 13.3914 36.4536L13.2715 36.555Z" fill="#54565A"/>
<path d="M19.843 40.822V40.5802L20.0828 40.5333C20.1996 40.5177 20.3131 40.4834 20.4186 40.4319C20.4804 40.3778 20.5295 40.3113 20.5625 40.2369L21.282 38.3881L22.1295 36.2117H22.5212V36.274L23.1448 37.7172C23.2887 38.0189 23.4166 38.3153 23.5285 38.6065C23.6405 38.8977 23.7364 39.1318 23.8163 39.3086C23.8643 39.4178 23.9283 39.5816 24.0162 39.8001C24.0694 39.955 24.1335 40.1062 24.2081 40.2525C24.2363 40.3132 24.2712 40.3707 24.312 40.4241C24.3784 40.4615 24.4518 40.4854 24.5279 40.4944C24.6348 40.5074 24.7395 40.5336 24.8397 40.5723C24.8397 40.6504 24.8397 40.705 24.8397 40.744V40.822H24.256H23.6804H23.2727H22.6651H22.4892C22.4892 40.744 22.4892 40.666 22.4892 40.588L22.889 40.5099C22.961 40.495 23.0308 40.4715 23.0968 40.4397C23.1079 40.4122 23.1079 40.3815 23.0968 40.3539C23.1046 40.3232 23.1046 40.2911 23.0968 40.2603L22.9529 39.9171L22.6731 39.2384H21.306C21.258 39.3476 21.1541 39.6077 20.9942 40.0185C20.9574 40.1004 20.9332 40.1871 20.9223 40.2759C20.9203 40.2989 20.9236 40.322 20.9319 40.3436C20.9402 40.3651 20.9533 40.3847 20.9702 40.4007C21.0656 40.4609 21.1765 40.4933 21.29 40.4944L21.5458 40.5333V40.7752C21.5493 40.8011 21.5493 40.8273 21.5458 40.8532C21.4019 40.8532 21.0422 40.8532 20.4826 40.7908H20.3387C20.1725 40.8211 20.0039 40.8368 19.835 40.8376L19.843 40.822ZM21.5299 38.8561H22.6171C22.5452 38.6455 22.4573 38.4037 22.3373 38.1307C22.2174 37.8576 22.1294 37.647 22.0655 37.4988L21.5299 38.8561Z" fill="#54565A"/>
<path d="M25.0156 36.5707V36.3289H25.4234H25.7192H26.6066C26.9743 36.6565 27.2701 36.9373 27.502 37.1714C27.7338 37.4054 28.5812 38.2323 30.0443 39.6442V39.5584V39.1528C30.0443 38.911 30.0443 38.7237 30.0443 38.5833C30.0443 38.4429 30.0443 38.2791 30.0443 38.0919C30.0443 37.9046 30.0443 37.7252 30.0443 37.5692C30.0443 37.265 30.0043 37.0856 30.0043 37.0388C30.0164 36.9451 29.9997 36.8501 29.9563 36.7657C29.8562 36.6942 29.7365 36.6535 29.6126 36.6487C29.5108 36.6357 29.4114 36.6094 29.3168 36.5707V36.3601H29.4127H30.1162H30.9157H31.0676V36.5863C31.0145 36.6139 30.9581 36.6348 30.8997 36.6487C30.7311 36.6755 30.5718 36.7425 30.436 36.8437C30.4249 36.8873 30.4249 36.9328 30.436 36.9763C30.436 36.9763 30.436 37.0388 30.436 37.1246C30.436 37.2104 30.436 37.265 30.436 37.4132C30.436 37.7564 30.436 38.0217 30.436 38.1933C30.436 38.2557 30.436 38.3259 30.436 38.4039V39.6364V40.6194C30.436 40.713 30.436 40.7676 30.436 40.7832V40.9704H30.0203L29.5966 40.5414L28.7252 39.6989L28.1176 39.106L27.6699 38.6536C27.3741 38.3805 27.1102 38.1309 26.8704 37.9203L26.2868 37.4054V38.7081C26.2868 38.7861 26.2868 38.8641 26.2868 38.9499V39.1996V39.6599C26.2868 39.8471 26.2868 40.0577 26.3268 40.2761C26.3243 40.3203 26.3243 40.3646 26.3268 40.4088L26.3747 40.5101C26.5726 40.5636 26.7771 40.5899 26.9823 40.5882H27.0703V40.869H26.9344L26.2068 40.8144C25.8311 40.8144 25.5752 40.8144 25.4074 40.8144H25.0796C25.0796 40.7598 25.0796 40.713 25.0796 40.674C25.0796 40.635 25.0796 40.6038 25.0796 40.5492H25.2475H25.3834C25.5048 40.5588 25.6269 40.5455 25.7431 40.5101C25.7895 40.4379 25.8118 40.3534 25.8071 40.2683C25.8071 39.8991 25.8071 39.6728 25.8071 39.5896V38.2635V37.5536C25.8178 37.3647 25.7989 37.1753 25.7511 36.992C25.7411 36.9378 25.713 36.8884 25.6712 36.8515C25.5942 36.7687 25.4983 36.7046 25.3914 36.6643C25.2683 36.6251 25.1428 36.5938 25.0156 36.5707Z" fill="#54565A"/>
<path d="M35.5287 40.5334L35.7445 40.4944C35.9021 40.4789 36.0532 40.4253 36.1842 40.3384C36.2378 40.2748 36.2662 40.1945 36.2642 40.1122C36.2642 40.1122 36.2642 39.7299 36.2642 39.0512V36.8748C36.2654 36.824 36.2485 36.7743 36.2162 36.7344C36.1693 36.7205 36.1192 36.7205 36.0723 36.7344H35.8645H35.5767H35.5127V36.4301C35.7111 36.3695 35.9143 36.3252 36.1203 36.2975C36.6497 36.2223 37.1843 36.1884 37.7192 36.1961C38.1077 36.182 38.4966 36.2108 38.8785 36.2819C39.2092 36.35 39.5204 36.4885 39.7898 36.6876C40.0882 36.9049 40.3293 37.1884 40.4934 37.5145C40.6586 37.8696 40.7374 38.2572 40.7235 38.6469C40.7096 39.0367 40.6035 39.4181 40.4134 39.7611C40.1896 40.0956 39.8775 40.3651 39.51 40.5412C39.1537 40.6972 38.7649 40.7693 38.3748 40.7518H37.6473H36.3681H36.0084H35.5287V40.5334ZM37.2635 36.633C37.2606 36.6849 37.2606 36.737 37.2635 36.789V37.8967C37.2635 38.0683 37.2635 38.2166 37.2635 38.3414V39.5661C37.2335 39.7997 37.2996 40.0353 37.4474 40.2214C37.6476 40.3926 37.9092 40.4796 38.1749 40.4632C38.3538 40.4722 38.5327 40.4484 38.7026 40.393C38.9233 40.3217 39.1202 40.1934 39.2722 40.0217C39.4242 39.85 39.5258 39.6414 39.566 39.4179C39.6395 39.1481 39.6772 38.8702 39.6779 38.591C39.6922 38.1939 39.6128 37.7989 39.4461 37.4364C39.3086 37.1565 39.0887 36.9229 38.8145 36.7656C38.5781 36.6438 38.3191 36.5693 38.0527 36.5465C37.7864 36.5237 37.5181 36.5531 37.2635 36.633Z" fill="#54565A"/>
<path d="M41.5488 40.8221V40.5725L41.7887 40.51C41.9075 40.4879 42.023 40.4512 42.1324 40.4009C42.1776 40.3056 42.1995 40.2015 42.1964 40.0966V38.7003C42.1964 38.24 42.1964 37.9982 42.1964 37.9826V37.3351V36.9295V36.7812C42.2009 36.745 42.2009 36.7083 42.1964 36.672C42.0428 36.6165 41.8805 36.5875 41.7167 36.5862H41.5968V36.2742L42.6201 36.321H42.852H43.5315H43.8593C43.8628 36.3599 43.8628 36.3991 43.8593 36.438C43.8593 36.438 43.8593 36.5238 43.8593 36.5862C43.7534 36.6277 43.6436 36.6591 43.5315 36.6798C43.4281 36.7042 43.3267 36.7355 43.2277 36.7734C43.2175 36.859 43.2175 36.9454 43.2277 37.0309C43.2224 37.114 43.2224 37.1974 43.2277 37.2805C43.2277 37.6706 43.2277 37.9748 43.2277 38.1854V39.1137V39.5817V40.4087C43.2216 40.4343 43.2216 40.461 43.2277 40.4867L43.6195 40.5569H43.8353C43.8353 40.6271 43.8353 40.6895 43.8353 40.7363V40.8533H43.5315L43.0598 40.8065H42.4283C42.3004 40.8065 42.1165 40.8065 41.8766 40.8065L41.5488 40.8221Z" fill="#54565A"/>
<path d="M48.9993 36.5939C48.9993 36.6563 48.9993 36.7889 49.0552 36.9917C49.0637 37.1372 49.0637 37.2831 49.0552 37.4286C49.0615 37.4699 49.0615 37.512 49.0552 37.5533C48.9676 37.5625 48.8791 37.5625 48.7914 37.5533C48.6804 37.3703 48.5519 37.198 48.4077 37.0385C48.2544 36.8961 48.0755 36.7824 47.88 36.7031C47.7015 36.6359 47.5118 36.6015 47.3204 36.6017C47.117 36.6072 46.9174 36.657 46.7362 36.7475C46.555 36.8379 46.3968 36.9666 46.2731 37.1243C45.9354 37.5747 45.7738 38.128 45.8174 38.6845C45.8155 39.007 45.8751 39.3272 45.9933 39.6284C46.0968 39.9132 46.2829 40.1625 46.5289 40.3461C46.7602 40.5133 47.0405 40.6035 47.3284 40.6035C47.4952 40.6033 47.6614 40.585 47.8241 40.5489C47.9065 40.5321 47.9818 40.4913 48.0399 40.4319C48.0825 40.387 48.108 40.3291 48.1119 40.268C48.1233 40.0758 48.1233 39.883 48.1119 39.6908C48.1119 39.449 48.1119 39.2851 48.1119 39.1993C48.1041 39.1715 48.0873 39.1468 48.0639 39.1291L47.92 39.0745L47.6002 38.9965C47.5519 38.9894 47.5071 38.9676 47.4723 38.9341C47.4696 38.9134 47.4696 38.8924 47.4723 38.8717C47.4665 38.8251 47.4665 38.7779 47.4723 38.7313H47.5682C47.8241 38.7313 48.0479 38.7313 48.2398 38.7313H49.2631C49.3429 38.7244 49.4232 38.7244 49.5029 38.7313C49.5065 38.7806 49.5065 38.8302 49.5029 38.8795C49.5094 38.9104 49.5094 38.9422 49.5029 38.9731L49.2951 39.0589C49.2357 39.0737 49.1791 39.0974 49.1272 39.1291C49.1062 39.1538 49.0925 39.1834 49.0872 39.2149C49.0872 39.2149 49.0872 39.3943 49.0872 39.6362C49.0872 39.878 49.0872 40.073 49.0872 40.1276C49.0872 40.2993 49.0872 40.3929 49.0872 40.4163C49.1061 40.4693 49.1061 40.527 49.0872 40.5801C48.8973 40.6946 48.6849 40.769 48.4636 40.7985C48.068 40.8883 47.6626 40.9302 47.2564 40.9233C46.9878 40.9262 46.7197 40.9 46.457 40.8454C46.2437 40.8051 46.0384 40.7313 45.8494 40.6269C45.6316 40.5007 45.4371 40.3399 45.2738 40.1511C45.1151 39.9725 44.993 39.766 44.914 39.5426C44.8042 39.2501 44.7474 38.9413 44.7461 38.6299C44.7488 38.2679 44.8334 37.9109 44.9939 37.5845C45.1095 37.3232 45.2813 37.0891 45.4976 36.8981C45.7264 36.684 45.9988 36.5192 46.2971 36.4144C46.6363 36.2872 46.997 36.2237 47.3604 36.2272H47.5922C47.8625 36.2283 48.1314 36.265 48.3917 36.3364C48.6052 36.3951 48.8096 36.4817 48.9993 36.5939Z" fill="#54565A"/>
<path d="M50.1748 40.8221V40.5725L50.4067 40.51C50.5259 40.4892 50.6415 40.4525 50.7504 40.4009C50.7995 40.3069 50.8216 40.2018 50.8144 40.0966V38.7003C50.8144 38.24 50.8144 37.9982 50.8144 37.9826V37.3351V36.9295V36.7812C50.8189 36.745 50.8189 36.7083 50.8144 36.672C50.6634 36.6173 50.5038 36.5883 50.3427 36.5862H50.2148V36.2742L51.2381 36.321H51.4779H52.1495H52.4853V36.438C52.4887 36.4874 52.4887 36.5369 52.4853 36.5862C52.3794 36.6277 52.2696 36.6591 52.1575 36.6798L51.8537 36.7734C51.8441 36.859 51.8441 36.9453 51.8537 37.0309C51.849 37.114 51.849 37.1974 51.8537 37.2805C51.8537 37.6706 51.8537 37.9748 51.8537 38.1854V39.1137V39.5817V40.276V40.4087C51.8476 40.4343 51.8476 40.461 51.8537 40.4867L52.2454 40.5569H52.4693C52.4729 40.6166 52.4729 40.6765 52.4693 40.7363V40.8533H52.1735L51.6938 40.8065H51.0623C50.9343 40.8065 50.7505 40.8065 50.5106 40.8065L50.1748 40.8221Z" fill="#54565A"/>
<path d="M53.3488 36.0947H53.5726V36.1493C53.6175 36.2301 53.6711 36.3059 53.7325 36.3755H57.1382H57.3461C57.3934 36.3279 57.4266 36.2686 57.442 36.204C57.4463 36.1755 57.4463 36.1466 57.442 36.1182H57.7938V37.3351C57.7986 37.387 57.7986 37.4392 57.7938 37.4911C57.7107 37.518 57.625 37.5363 57.538 37.5457C57.4569 37.4232 57.3899 37.2924 57.3381 37.1556C57.3027 37.0539 57.2543 36.957 57.1942 36.867C57.1699 36.8367 57.1363 36.8148 57.0983 36.8046C57.0343 36.8046 56.7865 36.8046 56.2988 36.8046H56.051C56.051 36.8904 56.051 36.9684 56.051 37.023V38.5208V39.6286V40.0888C56.0455 40.2102 56.0617 40.3317 56.0989 40.4476C56.1661 40.4713 56.2359 40.487 56.3068 40.4944L56.5706 40.549L56.7625 40.6037C56.7654 40.6556 56.7654 40.7077 56.7625 40.7596C56.7651 40.7908 56.7651 40.8221 56.7625 40.8532H56.6346C56.3894 40.8532 56.1816 40.8532 56.011 40.8532C55.8351 40.8532 55.5233 40.8532 55.0756 40.8532L54.444 40.9001H54.1802C54.1769 40.8715 54.1769 40.8428 54.1802 40.8143V40.705C54.2602 40.6263 54.3638 40.5743 54.476 40.5568C54.6547 40.5242 54.8291 40.4719 54.9957 40.4008C55.0093 40.3444 55.0093 40.2856 54.9957 40.2292C54.9957 39.9484 54.9957 39.5037 54.9957 38.8875V37.5691C54.9957 37.2025 54.9957 36.984 54.9957 36.906V36.8592H54.9397C54.8677 36.8592 54.6279 36.8592 54.2202 36.8592C54.0655 36.8494 53.9104 36.8707 53.7645 36.9216C53.5868 37.0571 53.4306 37.2175 53.3008 37.3975C53.2448 37.4755 53.1968 37.5067 53.1729 37.5067C53.0949 37.4725 53.0223 37.4279 52.957 37.3741C53.0837 37.0777 53.1879 36.7726 53.2688 36.4613L53.3488 36.0947Z" fill="#54565A"/>
<path d="M57.5535 40.822V40.5802L57.7933 40.5333C57.9102 40.5177 58.0236 40.4834 58.1291 40.4319C58.1909 40.3778 58.24 40.3113 58.273 40.2369L59.0005 38.3881L59.848 36.2117H60.2397V36.274L60.8633 37.7172C60.9992 38.0215 61.1271 38.3179 61.239 38.6065C61.351 38.8951 61.4469 39.1292 61.5268 39.3086C61.6068 39.488 61.6468 39.5816 61.7267 39.8001C61.7796 39.9563 61.8465 40.1077 61.9266 40.2525C61.9516 40.3148 61.9867 40.3727 62.0305 40.4241C62.0933 40.4629 62.1645 40.487 62.2384 40.4944C62.3453 40.5074 62.45 40.5336 62.5502 40.5723C62.5555 40.6294 62.5555 40.6869 62.5502 40.744C62.5531 40.7699 62.5531 40.7961 62.5502 40.822H61.9665H61.3909H60.9832H60.3756H60.1997C60.1997 40.744 60.1997 40.666 60.1997 40.588L60.5915 40.5099C60.6639 40.4966 60.734 40.473 60.7993 40.4397C60.8097 40.412 60.8097 40.3816 60.7993 40.3539C60.8032 40.3229 60.8032 40.2914 60.7993 40.2603L60.6554 39.9171L60.3756 39.2384H59.0085C58.9526 39.3476 58.8486 39.6207 58.6887 40.0185C58.6525 40.1001 58.6309 40.1872 58.6248 40.2759C58.6228 40.2989 58.6261 40.322 58.6344 40.3436C58.6427 40.3651 58.6558 40.3847 58.6727 40.4007C58.7656 40.4598 58.8737 40.4923 58.9845 40.4944L59.2404 40.5333C59.2404 40.6192 59.2404 40.6737 59.2404 40.7128C59.2404 40.7518 59.2404 40.7596 59.2404 40.7908C59.0885 40.7908 58.7367 40.7908 58.1771 40.7284H58.0332C57.8644 40.7587 57.6931 40.7744 57.5215 40.7752L57.5535 40.822ZM59.2404 38.8561H60.3196C60.2477 38.6455 60.1518 38.4037 60.0398 38.1307C59.9279 37.8576 59.832 37.647 59.76 37.4988L59.2404 38.8561Z" fill="#54565A"/>
<path d="M62.8144 40.5335C62.9169 40.5064 63.021 40.4856 63.1262 40.4711H63.366C63.4619 40.4711 63.5179 40.4711 63.5499 40.4243C63.5564 40.3777 63.5564 40.3305 63.5499 40.2839V39.8392V39.379V38.3883V37.6082V37.2103C63.5491 37.0738 63.533 36.9377 63.5019 36.8046C63.4437 36.7586 63.3753 36.7266 63.3021 36.711L63.1661 36.6564L62.9983 36.6096C62.9358 36.5968 62.8762 36.573 62.8224 36.5394V36.3132H62.8943H63.5179H64.4053C64.5732 36.3132 64.7811 36.3132 65.0369 36.3132H65.1728C65.1728 36.3132 65.2368 36.3132 65.2448 36.3132C65.2607 36.3561 65.2607 36.403 65.2448 36.4458C65.2588 36.4863 65.2588 36.5301 65.2448 36.5706C65.1924 36.5846 65.1372 36.5846 65.0849 36.5706L64.6452 36.672H64.5812V36.711V37.1323C64.5812 37.1323 64.5812 37.2103 64.5812 37.3273C64.5773 37.3558 64.5773 37.3847 64.5812 37.4131C64.5812 37.4131 64.5812 37.5145 64.5812 37.6082C64.5812 37.7018 64.5812 37.8656 64.5812 37.9748C64.5812 38.084 64.5812 38.2322 64.5812 38.3883V38.6145V40.2761C64.5812 40.3463 64.5812 40.3931 64.5812 40.4087H64.925H65.3647C65.6718 40.4236 65.979 40.3785 66.2681 40.2761C66.3918 40.2426 66.5029 40.1748 66.5879 40.081C66.6688 40.0189 66.7367 39.9421 66.7877 39.8548C66.8637 39.7301 66.9228 39.5964 66.9636 39.457H67.2754V39.5584C67.2754 39.7222 67.2754 40.0186 67.2115 40.4399C67.2008 40.5425 67.1821 40.6443 67.1555 40.7441H67.0516H66.7318H66.3081H65.6205H64.4213H63.6938H62.8943H62.7744C62.7705 40.7209 62.7705 40.6972 62.7744 40.6739C62.7827 40.6259 62.7962 40.5788 62.8144 40.5335Z" fill="#54565A"/>
<path d="M71.4326 40.822V40.5802L71.6724 40.5333C71.7893 40.5177 71.9028 40.4834 72.0083 40.4319C72.0701 40.3778 72.1192 40.3113 72.1522 40.2369L72.8797 38.3881L73.7271 36.2117H74.1108L74.1508 36.274L74.7664 37.7172C74.9103 38.0189 75.0383 38.3153 75.1502 38.6065C75.2621 38.8977 75.358 39.1318 75.438 39.3086C75.486 39.4178 75.5499 39.5816 75.6379 39.8001C75.691 39.955 75.7551 40.1062 75.8297 40.2525C75.8563 40.3157 75.8942 40.3738 75.9417 40.4241C76.0044 40.4629 76.0756 40.487 76.1495 40.4944C76.2564 40.5074 76.3611 40.5336 76.4613 40.5723C76.4678 40.6294 76.4678 40.687 76.4613 40.744V40.822H75.8777H75.3021H74.8943H74.2867H74.1108C74.1108 40.744 74.1108 40.666 74.1108 40.588L74.5106 40.5099C74.583 40.4966 74.6531 40.473 74.7184 40.4397C74.7288 40.412 74.7288 40.3816 74.7184 40.3539C74.7256 40.3231 74.7256 40.2911 74.7184 40.2603L74.5825 39.9171L74.2947 39.2384H72.9836C72.9356 39.3476 72.8317 39.6077 72.6718 40.0185C72.635 40.1004 72.6108 40.1871 72.5999 40.2759C72.5989 40.2995 72.6034 40.323 72.6131 40.3446C72.6228 40.3662 72.6374 40.3854 72.6558 40.4007C72.7487 40.4598 72.8567 40.4923 72.9676 40.4944L73.2234 40.5333V40.7908C73.0715 40.7908 72.7197 40.7908 72.1601 40.7284H72.0083C71.8422 40.7587 71.6736 40.7744 71.5046 40.7752L71.4326 40.822ZM73.1195 38.8561H74.1988C74.1269 38.6455 74.0309 38.4037 73.919 38.1307C73.807 37.8576 73.7111 37.647 73.6392 37.4988L73.1195 38.8561Z" fill="#54565A"/>
<path d="M79.5553 36.3991C79.5843 36.5173 79.6056 36.6371 79.6193 36.7579C79.6193 36.9997 79.6592 37.187 79.6592 37.3196C79.6667 37.3635 79.6667 37.4083 79.6592 37.4522H79.4034H79.3554C79.2947 37.2237 79.1888 37.0091 79.0437 36.8203C78.9631 36.7324 78.8646 36.662 78.7544 36.6137C78.6442 36.5653 78.5249 36.54 78.4041 36.5395C78.1999 36.5298 77.9996 36.5968 77.8445 36.7267C77.7782 36.7811 77.7251 36.8492 77.6892 36.9261C77.6532 37.0031 77.6353 37.0868 77.6366 37.1714C77.6461 37.3353 77.7207 37.4892 77.8445 37.6004C78.0906 37.7951 78.3814 37.9289 78.6919 37.9904C78.8747 38.0467 79.0536 38.1145 79.2275 38.1933C79.3992 38.2673 79.5562 38.3703 79.6912 38.4975C79.818 38.617 79.9187 38.7603 79.987 38.9187C80.0464 39.0786 80.0736 39.2481 80.067 39.418C80.0667 39.6391 80.0261 39.8583 79.9471 40.0655C79.8942 40.1852 79.8182 40.2937 79.7232 40.3853C79.6216 40.4776 79.5119 40.5612 79.3954 40.635C79.2485 40.7233 79.0897 40.7916 78.9237 40.8378C78.7192 40.8828 78.5098 40.9038 78.3002 40.9002C78.1011 40.8958 77.9029 40.8723 77.7085 40.83L77.2768 40.7051C77.1979 40.6888 77.1222 40.6599 77.053 40.6193C77.053 40.6193 77.053 40.6194 77.053 40.5492V40.5101C77.053 40.5101 77.053 40.3307 77.053 40.0343V39.5818H77.3808C77.4927 39.8392 77.5727 39.9953 77.6046 40.0499C77.6676 40.1607 77.7517 40.2586 77.8525 40.3385C77.9462 40.4179 78.0547 40.4789 78.1722 40.5179C78.3012 40.5594 78.4362 40.5805 78.572 40.5803C78.7168 40.5789 78.8603 40.5525 78.9957 40.5024C79.1451 40.4521 79.2758 40.3598 79.3714 40.2371C79.463 40.1236 79.5136 39.9837 79.5153 39.8392C79.5101 39.7475 79.4853 39.6578 79.4427 39.5759C79.4 39.494 79.3403 39.4216 79.2675 39.3634C79.0215 39.2025 78.752 39.0789 78.468 38.9967C78.1444 38.9021 77.8352 38.7657 77.5487 38.5911C77.3746 38.4699 77.2366 38.3057 77.1489 38.1153C77.0581 37.9355 77.009 37.7384 77.005 37.538C77.0022 37.3617 77.037 37.1867 77.1072 37.0242C77.1774 36.8617 77.2814 36.7152 77.4127 36.5941C77.7451 36.3172 78.1762 36.1798 78.6119 36.2119C78.7838 36.2159 78.9549 36.2341 79.1236 36.2664C79.2703 36.3014 79.4145 36.3457 79.5553 36.3991Z" fill="#54565A"/>
<path d="M83.4803 36.3989C83.5133 36.5163 83.5347 36.6364 83.5443 36.7577C83.5566 36.9447 83.5566 37.1324 83.5443 37.3194C83.5482 37.3635 83.5482 37.4079 83.5443 37.452H83.2885H83.2405C83.1798 37.2236 83.0739 37.0089 82.9287 36.8201C82.8485 36.7319 82.75 36.6612 82.6398 36.6128C82.5295 36.5644 82.41 36.5394 82.2891 36.5393C82.0849 36.5296 81.8847 36.5966 81.7295 36.7265C81.6632 36.7809 81.6101 36.8491 81.5742 36.926C81.5382 37.0029 81.5203 37.0867 81.5216 37.1712C81.5312 37.3351 81.6057 37.489 81.7295 37.6002C81.979 37.7945 82.2722 37.9282 82.5849 37.9903C82.7646 38.0481 82.9408 38.1158 83.1126 38.1931C83.2882 38.2567 83.4493 38.3536 83.5865 38.4781C83.7237 38.6026 83.8343 38.7523 83.912 38.9186C83.9676 39.0793 83.9947 39.2482 83.992 39.4178C83.989 39.6394 83.9456 39.8586 83.8641 40.0653C83.8113 40.1831 83.7383 40.2913 83.6482 40.3851C83.5437 40.4774 83.4313 40.5609 83.3124 40.6348C83.1662 40.7245 83.0073 40.7929 82.8408 40.8376C82.6389 40.8823 82.4322 40.9032 82.2252 40.9C82.0234 40.8962 81.8225 40.8727 81.6256 40.8298L81.1939 40.705C81.1149 40.6887 81.0392 40.6597 80.97 40.6192C80.97 40.6192 80.97 40.6192 80.97 40.549V40.5099C80.97 40.5099 80.97 40.3305 80.97 40.0341C80.97 39.8859 80.97 39.7767 80.97 39.7143V39.5816H81.2978C81.4177 39.8391 81.4897 39.9951 81.5216 40.0497C81.5871 40.1588 81.6709 40.2563 81.7695 40.3383C81.8632 40.4178 81.9718 40.4787 82.0893 40.5177C82.2182 40.5593 82.3532 40.5803 82.489 40.5802C82.6364 40.578 82.7823 40.5517 82.9207 40.5022C83.0688 40.4537 83.1975 40.3608 83.2885 40.2369C83.3801 40.1234 83.4307 39.9835 83.4324 39.8391C83.4292 39.7469 83.4053 39.6566 83.3625 39.5743C83.3196 39.4921 83.2589 39.4201 83.1845 39.3632C82.9396 39.2006 82.6697 39.0768 82.3851 38.9966C82.0632 38.904 81.7563 38.7674 81.4737 38.591C81.2972 38.4702 81.1565 38.306 81.0659 38.1151C80.9751 37.9353 80.926 37.7382 80.922 37.5378C80.9192 37.3615 80.954 37.1865 81.0242 37.024C81.0944 36.8615 81.1984 36.7151 81.3298 36.5939C81.6646 36.3158 82.0986 36.1784 82.537 36.2117C82.7061 36.2162 82.8746 36.2344 83.0406 36.2663C83.1901 36.3009 83.337 36.3452 83.4803 36.3989Z" fill="#54565A"/>
<path d="M84.5283 36.2976H84.8801C85.0976 36.324 85.3165 36.337 85.5357 36.3366H86.1992C86.7349 36.3366 87.2146 36.3366 87.6463 36.3366H88.2938C88.4377 36.3366 88.6536 36.3366 88.9414 36.3912C88.9852 36.444 89.0079 36.5105 89.0053 36.5784V37.5067H88.7335L88.6536 37.3039L88.5097 37.0543C88.4443 36.9375 88.3666 36.8277 88.2778 36.7266C88.2009 36.7168 88.123 36.7168 88.046 36.7266H87.8301C87.5905 36.7143 87.3503 36.7143 87.1106 36.7266H86.3111C86.3111 36.7813 86.3111 37.0153 86.3111 37.4131V38.4429H86.463C86.8947 38.4429 87.1986 38.4429 87.3824 38.4429C87.498 38.4414 87.6121 38.4175 87.7182 38.3726C87.7689 38.3344 87.8077 38.283 87.8301 38.2244C87.8824 38.0552 87.9251 37.8833 87.958 37.7096H88.2139C88.2139 37.9202 88.2139 38.0762 88.2139 38.1776C88.2139 38.4272 88.2139 38.5833 88.2139 38.6535C88.2106 38.7081 88.2106 38.7627 88.2139 38.8173C88.2139 38.8797 88.2139 38.9811 88.2139 39.1215C88.2139 39.2619 88.2139 39.3634 88.2139 39.4258V39.5038H87.958C87.958 39.5038 87.958 39.3946 87.9021 39.2776C87.8814 39.1367 87.8382 38.9998 87.7742 38.8719C87.7594 38.8464 87.7386 38.8246 87.7137 38.8084C87.6887 38.7921 87.6601 38.7818 87.6303 38.7783C87.4548 38.7607 87.278 38.7607 87.1026 38.7783C86.7428 38.7783 86.471 38.7783 86.3031 38.7783V38.8953C86.3031 39.1761 86.3031 39.4023 86.3031 39.5896V40.3696C86.2998 40.4054 86.3071 40.4413 86.3241 40.4731C86.3411 40.5049 86.3672 40.5313 86.3991 40.5491C86.6916 40.6203 86.9937 40.6466 87.2945 40.6271C87.579 40.6293 87.8629 40.6032 88.1419 40.5491C88.3047 40.516 88.4528 40.4341 88.5656 40.315C88.7462 40.1263 88.885 39.9032 88.9734 39.6598H89.2692C89.2692 39.7222 89.2692 39.769 89.2692 39.808V39.9094L89.1413 40.5725L89.0773 40.9703H88.7095H87.6383C87.2305 40.9703 86.7348 40.9703 86.1592 40.9703C85.8714 40.9703 85.5196 40.9703 85.1039 40.9703H84.976H84.5443V40.7285H84.8161C84.9917 40.7198 85.1645 40.6829 85.3278 40.6193C85.3558 40.5363 85.3693 40.4492 85.3678 40.3618V38.3414V37.7797V37.3819V36.9529V36.8827C85.3382 36.8533 85.298 36.8365 85.2558 36.8359H85.1519C85.0209 36.8054 84.8868 36.7897 84.7521 36.7891H84.6003L84.5283 36.2976Z" fill="#54565A"/>
<path d="M90.1484 36.0947H90.3643V36.1493C90.4072 36.2294 90.4581 36.3051 90.5162 36.3755H93.9219H94.1298C94.1775 36.3269 94.2131 36.2682 94.2337 36.204V36.1182H94.5695V37.3351C94.5739 37.387 94.5739 37.4392 94.5695 37.4911C94.4837 37.5181 94.3953 37.5364 94.3056 37.5457C94.2246 37.4232 94.1575 37.2924 94.1058 37.1556C94.071 37.055 94.0255 36.9583 93.9699 36.867C93.9424 36.8365 93.9062 36.8148 93.8659 36.8046C93.81 36.8046 93.5541 36.8046 93.0665 36.8046H92.8106C92.8106 36.8904 92.8106 36.9684 92.8106 37.023V40.0888C92.8051 40.2102 92.8213 40.3317 92.8586 40.4476L93.0665 40.4944L93.3383 40.549L93.5302 40.6037C93.5302 40.6895 93.5302 40.744 93.5302 40.7596C93.5302 40.7752 93.5302 40.8142 93.5302 40.8532H93.3943C93.1544 40.8532 92.9385 40.8532 92.7707 40.8532C92.6028 40.8532 92.283 40.8532 91.8353 40.8532L91.2037 40.9001H90.9399C90.9399 40.861 90.9399 40.8377 90.9399 40.8143V40.705C91.0188 40.6249 91.1229 40.5727 91.2357 40.5568C91.4116 40.5233 91.5832 40.471 91.7473 40.4008C91.7737 40.3469 91.79 40.2887 91.7953 40.2292C91.7953 39.9484 91.7953 39.5037 91.7953 38.8875V37.5691C91.8101 37.3483 91.8101 37.1268 91.7953 36.906V36.8592H91.7473C91.6674 36.8592 91.4276 36.8592 91.0198 36.8592C90.8677 36.8484 90.715 36.8697 90.5721 36.9216C90.3924 37.0549 90.2358 37.2156 90.1084 37.3975C90.0445 37.4755 90.0045 37.5067 89.9725 37.5067C89.8966 37.4733 89.8264 37.4286 89.7646 37.3741C89.8875 37.0771 89.9891 36.7721 90.0685 36.4613C90.1004 36.2351 90.1324 36.1493 90.1484 36.0947Z" fill="#54565A"/>
<path d="M99.1898 40.5335C99.2923 40.5064 99.3964 40.4856 99.5016 40.4711H99.7414C99.8373 40.4711 99.8933 40.4711 99.9253 40.4243C99.9318 40.3777 99.9318 40.3305 99.9253 40.2839V39.8392V39.379V38.3883V37.6082V37.2103C99.9245 37.0738 99.9084 36.9377 99.8773 36.8046C99.8191 36.7586 99.7507 36.7266 99.6775 36.711L99.5415 36.6564L99.3737 36.6096C99.3112 36.5968 99.2516 36.573 99.1978 36.5394V36.3132H99.2697H99.8933H100.781C100.949 36.3132 101.156 36.3132 101.412 36.3132H101.548C101.548 36.3132 101.612 36.3132 101.62 36.3132C101.636 36.3561 101.636 36.403 101.62 36.4458C101.634 36.4863 101.634 36.5301 101.62 36.5706C101.568 36.5846 101.513 36.5846 101.46 36.5706L101.021 36.672H100.957V36.711V37.1323C100.957 37.1323 100.957 37.2103 100.957 37.3273C100.953 37.3558 100.953 37.3847 100.957 37.4131C100.957 37.4131 100.957 37.5145 100.957 37.6082C100.957 37.7018 100.957 37.8656 100.957 37.9748C100.957 38.084 100.957 38.2322 100.957 38.3883V38.6145V40.2761C100.957 40.3463 100.957 40.3931 100.957 40.4087H101.3H101.764C102.071 40.4236 102.378 40.3785 102.667 40.2761C102.791 40.2426 102.902 40.1748 102.987 40.081C103.068 40.0189 103.136 39.9421 103.187 39.8548C103.263 39.7301 103.322 39.5964 103.363 39.457H103.675V39.5584C103.675 39.7222 103.675 40.0186 103.611 40.4399C103.6 40.5425 103.581 40.6443 103.555 40.7441H103.451H103.131H102.707H102.02H100.821H100.093H99.2937H99.1738C99.1699 40.7209 99.1699 40.6972 99.1738 40.6739C99.1743 40.6267 99.1797 40.5797 99.1898 40.5335Z" fill="#54565A"/>
<path d="M104.163 40.8221V40.5725L104.395 40.51C104.517 40.489 104.635 40.4523 104.747 40.4009C104.792 40.3056 104.814 40.2015 104.811 40.0966V38.7003C104.811 38.24 104.811 37.9982 104.811 37.9826V37.5223V37.3351V36.9295V36.7812C104.815 36.745 104.815 36.7083 104.811 36.672C104.66 36.6173 104.5 36.5883 104.339 36.5862H104.163V36.2742L105.186 36.321H105.426H106.106H106.434V36.438C106.437 36.4874 106.437 36.5369 106.434 36.5862C106.328 36.6288 106.218 36.6601 106.106 36.6798L105.802 36.7734C105.796 36.8592 105.796 36.9452 105.802 37.0309C105.797 37.114 105.797 37.1974 105.802 37.2805C105.802 37.6706 105.802 37.9748 105.802 38.1854V39.1137V39.5817V40.276V40.4087C105.796 40.4343 105.796 40.461 105.802 40.4867L106.202 40.5569H106.418C106.418 40.6271 106.418 40.6895 106.418 40.7363C106.418 40.7831 106.418 40.7987 106.418 40.8533H106.122L105.65 40.8065H105.011C104.891 40.8065 104.707 40.8065 104.459 40.8065L104.163 40.8221Z" fill="#54565A"/>
<path d="M107.217 40.8533V40.5724H107.425C107.556 40.5552 107.684 40.5238 107.808 40.4788C107.836 40.4325 107.858 40.3826 107.872 40.3306C107.883 40.1383 107.883 39.9456 107.872 39.7534V38.2634C107.872 38.1152 107.872 37.7095 107.872 37.062C107.889 36.9534 107.889 36.8431 107.872 36.7344C107.859 36.7311 107.846 36.7311 107.832 36.7344C107.768 36.6949 107.692 36.6784 107.617 36.6876H107.265V36.438H108.064H109.231H109.879C110.079 36.4424 110.278 36.4712 110.471 36.5238C110.571 36.5507 110.668 36.5901 110.758 36.6408C110.88 36.6934 110.989 36.7704 111.078 36.867C111.162 36.9565 111.23 37.0595 111.278 37.1713C111.319 37.2894 111.341 37.4131 111.342 37.5379C111.344 37.6712 111.311 37.8029 111.246 37.9202C111.174 38.0456 111.073 38.1526 110.95 38.2322C110.802 38.3213 110.647 38.3995 110.487 38.4662C110.794 38.525 111.074 38.6781 111.286 38.903C111.47 39.093 111.573 39.344 111.574 39.6051C111.571 39.7699 111.541 39.9331 111.486 40.0888C111.436 40.2191 111.36 40.3384 111.262 40.4398C111.14 40.5716 110.993 40.6801 110.83 40.7597C110.631 40.8452 110.422 40.9055 110.207 40.9391C110.002 40.9549 109.796 40.9549 109.591 40.9391H108.984C108.728 40.9391 108.424 40.9391 108.064 40.9391L107.217 40.8533ZM108.888 38.201C108.999 38.2096 109.112 38.2096 109.223 38.201C109.503 38.2162 109.781 38.1511 110.023 38.0138C110.12 37.9316 110.196 37.8276 110.243 37.7108C110.29 37.594 110.308 37.4678 110.295 37.3429C110.299 37.2364 110.277 37.1306 110.233 37.0333C110.189 36.936 110.122 36.8498 110.039 36.7812C109.809 36.6138 109.525 36.5335 109.239 36.555C109.106 36.5469 108.973 36.5469 108.84 36.555C108.84 36.6096 108.84 36.6876 108.84 36.789C108.84 36.8904 108.84 37.2649 108.84 37.6159V38.1464L108.888 38.201ZM108.928 40.4242C109.067 40.4826 109.216 40.5144 109.367 40.5178C109.595 40.5253 109.821 40.4854 110.031 40.4008C110.187 40.3276 110.318 40.2109 110.407 40.0654C110.492 39.8957 110.533 39.7082 110.527 39.5193C110.534 39.332 110.49 39.1462 110.399 38.9811C110.301 38.8132 110.149 38.6815 109.967 38.6066C109.708 38.5317 109.438 38.5 109.168 38.513C109.064 38.496 108.959 38.496 108.856 38.513V40.2604C108.878 40.3216 108.914 40.3774 108.96 40.4242H108.928Z" fill="#54565A"/>
<path d="M112.413 40.6037C112.502 40.5652 112.596 40.5415 112.693 40.5335C112.804 40.52 112.914 40.4965 113.021 40.4632C113.021 40.4164 113.021 40.3774 113.021 40.3618C113.027 40.2501 113.027 40.1381 113.021 40.0264V39.2463V38.8251V38.3102C113.021 38.0606 113.021 37.8187 113.021 37.6003C113.021 37.1167 113.021 36.8202 113.021 36.6642L112.805 36.6252H112.421V36.4146C112.53 36.4041 112.64 36.4041 112.749 36.4146H113.085H113.364H113.556H113.996C114.276 36.4146 114.572 36.4146 114.883 36.4146C115.305 36.3941 115.72 36.5244 116.051 36.7812C116.183 36.8797 116.291 37.0057 116.367 37.1501C116.443 37.2945 116.485 37.4537 116.49 37.6159C116.491 37.8502 116.406 38.0771 116.251 38.2556C116.065 38.4732 115.813 38.6264 115.531 38.6925L115.651 38.8641L115.891 39.2229L116.458 40.1278C116.538 40.2785 116.634 40.4198 116.746 40.5491C116.826 40.6111 116.919 40.6562 117.018 40.6817C117.105 40.7113 117.188 40.7505 117.266 40.7987C117.273 40.8348 117.273 40.8718 117.266 40.9079V40.9859H117.098H116.914H116.762H116.482H116.155H115.907H115.747L115.627 40.7597C115.531 40.5802 115.459 40.4476 115.419 40.3618C115.315 40.1356 115.131 39.7768 114.875 39.2853C114.814 39.1434 114.731 39.0117 114.628 38.8953C114.514 38.8399 114.387 38.8156 114.26 38.8251H114.012C114.007 38.9056 114.007 38.9863 114.012 39.0669V39.847V40.5023C114.095 40.5452 114.184 40.5767 114.276 40.5959C114.439 40.6266 114.6 40.6709 114.756 40.7285C114.762 40.8142 114.762 40.9002 114.756 40.9859H114.556L113.644 40.9157H113.508H113.013H112.605H112.453C112.45 40.8767 112.45 40.8377 112.453 40.7987C112.429 40.7361 112.416 40.6703 112.413 40.6037ZM114.012 38.3492H114.26C114.564 38.3774 114.869 38.3031 115.123 38.1386C115.207 38.0688 115.274 37.9813 115.318 37.8826C115.363 37.7839 115.384 37.6768 115.379 37.5691C115.379 37.429 115.357 37.2897 115.315 37.1557C115.286 37.0501 115.234 36.9518 115.163 36.867C115.066 36.7708 114.945 36.7009 114.811 36.6642C114.648 36.6192 114.478 36.6007 114.308 36.6096H114.028V37.8188C114.028 37.9202 114.028 38.0606 114.028 38.2322L114.012 38.3492Z" fill="#54565A"/>
<path d="M117.323 40.822V40.5802L117.554 40.5333C117.672 40.519 117.785 40.4847 117.89 40.4319C117.953 40.3766 118.004 40.3105 118.042 40.2369L118.762 38.3881L119.609 36.2117H120.001V36.274L120.624 37.7172C120.76 38.0215 120.888 38.3179 121 38.6065C121.112 38.8951 121.208 39.1292 121.288 39.3086C121.368 39.488 121.408 39.5816 121.488 39.8001C121.544 39.955 121.611 40.1061 121.688 40.2525C121.713 40.3148 121.748 40.3727 121.792 40.4241C121.855 40.4617 121.926 40.4857 122 40.4944C122.109 40.5064 122.217 40.5326 122.319 40.5723C122.319 40.6504 122.319 40.705 122.319 40.744C122.322 40.7699 122.322 40.7961 122.319 40.822H121.736H121.168H120.76H120.145H119.969C119.969 40.744 119.969 40.666 119.969 40.588L120.369 40.5099L120.576 40.4397C120.584 40.4116 120.584 40.382 120.576 40.3539C120.58 40.3229 120.58 40.2914 120.576 40.2603L120.433 39.9171L120.153 39.2384H118.786C118.73 39.3476 118.626 39.6207 118.466 40.0185C118.434 40.1016 118.413 40.1879 118.402 40.2759C118.4 40.2989 118.403 40.322 118.412 40.3436C118.42 40.3651 118.433 40.3847 118.45 40.4007C118.543 40.4598 118.651 40.4923 118.762 40.4944L119.018 40.5333C119.021 40.5931 119.021 40.653 119.018 40.7128C119.018 40.7128 119.018 40.7596 119.018 40.7908C118.866 40.7908 118.514 40.7908 117.954 40.7284H117.81C117.644 40.7587 117.476 40.7744 117.307 40.7752L117.323 40.822ZM119.002 38.8561H120.081C120.009 38.6455 119.913 38.4037 119.801 38.1307C119.689 37.8576 119.593 37.647 119.521 37.4988L119.002 38.8561Z" fill="#54565A"/>
<path d="M122.719 40.6037C122.805 40.5648 122.897 40.541 122.991 40.5335C123.102 40.52 123.212 40.4965 123.319 40.4632C123.323 40.4295 123.323 40.3955 123.319 40.3618C123.325 40.2501 123.325 40.1381 123.319 40.0264V39.2463V38.8251V38.3102C123.319 38.0606 123.319 37.8187 123.319 37.6003C123.319 37.1167 123.319 36.8046 123.319 36.6642L123.111 36.6252H122.727V36.3756C122.839 36.3647 122.951 36.3647 123.063 36.3756H123.39H123.67H123.862H124.31C124.59 36.3756 124.886 36.3756 125.197 36.3756C125.619 36.3551 126.034 36.4855 126.365 36.7422C126.496 36.8411 126.603 36.9674 126.677 37.1119C126.752 37.2563 126.793 37.4152 126.796 37.5769C126.797 37.8098 126.715 38.0356 126.564 38.2166C126.376 38.4305 126.125 38.583 125.845 38.6535C125.877 38.7137 125.915 38.771 125.957 38.8251C126.053 38.9655 126.141 39.0825 126.197 39.1839L126.772 40.0888C126.85 40.2386 126.944 40.3798 127.052 40.51C127.133 40.5708 127.225 40.6158 127.324 40.6427C127.412 40.6706 127.495 40.7099 127.572 40.7597C127.578 40.7958 127.578 40.8327 127.572 40.8689C127.575 40.8948 127.575 40.921 127.572 40.9469H127.404H127.22H127.076H126.788H126.436H126.181H126.029L125.909 40.7207C125.808 40.5386 125.736 40.406 125.693 40.3228C125.589 40.0966 125.405 39.7377 125.149 39.2463C125.092 39.1027 125.008 38.9705 124.901 38.8562C124.788 38.8001 124.661 38.7758 124.534 38.7861H124.294C124.289 38.8666 124.289 38.9474 124.294 39.0279V39.808V40.4632C124.373 40.5076 124.46 40.5392 124.55 40.5568C124.714 40.5854 124.874 40.6299 125.029 40.6895C125.035 40.7752 125.035 40.8611 125.029 40.9469H124.798L123.878 40.8767H123.75H123.255H122.839H122.687C122.671 40.8021 122.671 40.7251 122.687 40.6505L122.719 40.6037ZM124.318 38.3492H124.574C124.878 38.3749 125.181 38.3008 125.437 38.1386C125.52 38.0684 125.586 37.9807 125.629 37.8819C125.672 37.7832 125.691 37.6762 125.685 37.5691C125.687 37.4294 125.668 37.2901 125.629 37.1557C125.597 37.0374 125.534 36.9295 125.446 36.8431C125.357 36.7567 125.247 36.695 125.125 36.6642C124.962 36.6192 124.792 36.6007 124.622 36.6096H124.334V37.8188C124.334 37.9202 124.334 38.0606 124.334 38.2322L124.318 38.3492Z" fill="#54565A"/>
<path d="M127.348 36.321C127.497 36.3078 127.647 36.3078 127.796 36.321H127.923H128.211C128.507 36.321 128.747 36.321 128.923 36.321C129.11 36.3199 129.297 36.3069 129.482 36.282H129.57C129.574 36.3052 129.574 36.329 129.57 36.3522V36.5316C129.508 36.5536 129.444 36.5693 129.378 36.5784H129.219H128.979V36.6252C129.126 36.8974 129.294 37.1582 129.482 37.4053C129.546 37.5223 129.618 37.6238 129.682 37.7252C129.746 37.8266 129.77 37.8578 129.882 38.045V38.1074L129.954 38.201L130.026 38.318C130.062 38.38 130.104 38.4376 130.154 38.4896L130.522 37.9826C130.642 37.8266 130.802 37.6003 131.001 37.3117L131.345 36.8749C131.383 36.8302 131.408 36.7762 131.417 36.7188V36.6642L131.329 36.6174H131.177H131.033H130.921C130.921 36.6174 130.921 36.5004 130.921 36.36L131.657 36.399H131.977H132.273H132.377V36.6642H132.329C132.183 36.6828 132.042 36.7278 131.913 36.7969C131.739 36.9661 131.593 37.1609 131.481 37.3741L131.017 38.0528C130.738 38.4194 130.554 38.6769 130.474 38.8329C130.449 38.8716 130.43 38.9136 130.418 38.9577V39.4491C130.414 39.5141 130.414 39.5792 130.418 39.6442V40.5335C130.495 40.5403 130.573 40.5403 130.65 40.5335C130.779 40.5389 130.908 40.5572 131.033 40.5881C131.042 40.6107 131.042 40.6356 131.033 40.6583C131.033 40.6583 131.033 40.7129 131.033 40.7441C131.037 40.7779 131.037 40.8118 131.033 40.8455H130.626H130.242H129.978H129.283H129.123C129.032 40.8537 128.941 40.8537 128.851 40.8455H128.603V40.6193L129.259 40.4867H129.347V40.2838C129.347 39.925 129.347 39.6832 129.347 39.5584C129.347 39.4336 129.347 39.3478 129.347 39.3322V39.2151C129.329 39.0257 129.247 38.8473 129.115 38.708C129.068 38.659 129.026 38.6069 128.987 38.5521L128.283 37.5067L127.955 36.9919L127.732 36.7033C127.698 36.6695 127.657 36.6429 127.612 36.6252L127.284 36.555C127.278 36.5373 127.278 36.5181 127.284 36.5004V36.4458C127.284 36.4458 127.348 36.3678 127.348 36.321Z" fill="#54565A"/>
<path d="M0.175802 1.31055H31.3551C31.4671 1.31055 31.531 1.38076 31.531 1.48217V4.3373C31.5336 4.36044 31.5307 4.38382 31.5228 4.40576C31.5148 4.4277 31.5019 4.44764 31.4851 4.46409C31.4682 4.48054 31.4478 4.49311 31.4253 4.50087C31.4028 4.50863 31.3788 4.51137 31.3551 4.50892H20.6343V31.4688C20.6368 31.4919 20.634 31.5153 20.626 31.5373C20.6181 31.5592 20.6052 31.5791 20.5883 31.5956C20.5714 31.612 20.551 31.6246 20.5285 31.6323C20.506 31.6401 20.4821 31.6428 20.4583 31.6404H11.0486C10.9367 31.6404 10.8807 31.5858 10.8807 31.4688V4.50892H0.175802C0.152087 4.51137 0.128118 4.50863 0.105634 4.50087C0.0831494 4.49311 0.0627219 4.48054 0.0458589 4.46409C0.0289958 4.44764 0.0161128 4.4277 0.00816415 4.40576C0.000215546 4.38382 -0.00260045 4.36044 -8.23376e-05 4.3373V1.48217C0.0159071 1.36515 0.0718709 1.31055 0.175802 1.31055Z" fill="#54565A"/>
<path d="M34.809 1.31055H52.885C56.6159 1.31055 60.003 3.13075 63.0463 6.77117C65.0624 9.39251 66.1812 12.5668 66.2442 15.8436V17.1074C66.2442 21.7879 64.1496 25.8496 59.9603 29.2924C57.49 30.8525 55.2754 31.6326 53.3247 31.6326H34.809C34.785 31.6367 34.7603 31.6351 34.737 31.628C34.7137 31.6208 34.6926 31.6083 34.6753 31.5914C34.6581 31.5746 34.6452 31.554 34.6379 31.5313C34.6305 31.5086 34.6289 31.4844 34.6332 31.461V1.48217C34.6491 1.36515 34.7051 1.31055 34.809 1.31055ZM44.4027 4.50892V28.442H46.3773C50.0495 28.442 52.9809 26.3436 55.1715 22.1467C55.9484 20.3644 56.3613 18.4512 56.3867 16.5145C56.4582 14.4571 56.0091 12.4143 55.079 10.5666C54.1489 8.71889 52.7666 7.12328 51.0542 5.92088C49.625 5.0156 47.9613 4.52587 46.2574 4.50892H44.4027Z" fill="#54565A"/>
<path d="M88.3411 1.3105C88.5276 1.3105 89.0606 2.87068 89.94 5.99104C90.3398 7.03116 93.1352 15.5393 98.3265 31.5156L98.1505 31.6014H88.3171C88.1252 31.6014 87.7175 30.478 87.1019 28.2392C86.8141 27.5579 85.2605 22.8072 82.441 13.987H82.353C82.1771 14.689 80.2771 20.5319 76.6528 31.5156L76.4769 31.6014H66.6674C66.6434 31.6055 66.6187 31.6039 66.5954 31.5967C66.5722 31.5896 66.551 31.577 66.5338 31.5602C66.5165 31.5433 66.5036 31.5227 66.4963 31.5C66.4889 31.4773 66.4873 31.4532 66.4916 31.4298C72.6475 12.5672 75.9546 2.51443 76.413 1.27148L88.3411 1.3105Z" fill="#FE3B1F"/>
<path d="M101.644 1.31055H111.054C111.166 1.31055 111.23 1.38076 111.23 1.48217V28.442H132.896C133.016 28.442 133.072 28.5122 133.072 28.6136V31.4688C133.076 31.4922 133.074 31.5163 133.067 31.539C133.06 31.5617 133.047 31.5824 133.029 31.5993C133.012 31.6161 132.991 31.6286 132.968 31.6358C132.944 31.6429 132.92 31.6445 132.896 31.6404H101.644C101.532 31.6404 101.477 31.5858 101.477 31.4688V1.48217C101.485 1.36515 101.548 1.31055 101.644 1.31055Z" fill="#54565A"/>
</g>
<defs>
<clipPath id="clip0">
<rect width="181" height="42" fill="white"/>
</clipPath>
</defs>
</svg>
