<svg width="40" height="47" viewBox="0 0 40 47" fill="none" xmlns="http://www.w3.org/2000/svg">
<path d="M39.8729 12.0873C39.8767 12.0587 39.8767 12.0298 39.8729 12.0012C39.8497 11.9283 39.8207 11.8574 39.786 11.7891L39.7459 11.7096C39.6982 11.6368 39.6446 11.568 39.5854 11.5041C39.5129 11.431 39.432 11.3665 39.3446 11.3119L20.6922 0.191288C20.4834 0.0661507 20.244 0 20 0C19.756 0 19.5166 0.0661507 19.3078 0.191288L0.608576 11.2589C0.521095 11.3135 0.440311 11.378 0.367823 11.4511C0.367823 11.4511 0.367831 11.4511 0.334392 11.4511C0.2773 11.5151 0.225811 11.5838 0.180544 11.6565C0.180544 11.6565 0.1471 11.7096 0.133724 11.7427C0.100732 11.8094 0.0716984 11.878 0.046779 11.9481V12.0343C0.0171959 12.1356 0.00148659 12.2403 0 12.3458V34.587C0.00140896 34.8184 0.0638713 35.0453 0.181197 35.2452C0.298523 35.4452 0.466627 35.6113 0.668784 35.7269L19.2944 46.8476H19.3412C19.4189 46.8884 19.4993 46.9238 19.582 46.9536H19.6622C19.7691 46.9825 19.8792 46.998 19.9899 47C20.0984 46.9975 20.2063 46.9819 20.311 46.9536H20.3912C20.475 46.9267 20.5557 46.8911 20.632 46.8476C20.632 46.8476 20.632 46.8476 20.6788 46.8476L39.3312 35.7269C39.5334 35.6113 39.7014 35.4452 39.8188 35.2452C39.9361 35.0453 39.9986 34.8184 40 34.587V12.3988C39.9729 12.2895 39.9301 12.1846 39.8729 12.0873ZM19.9231 2.80907L35.9739 12.3855L19.9231 21.962L3.87225 12.3855L19.9231 2.80907ZM2.62832 14.7382L18.5855 24.2617V43.3947L2.61493 33.8912L2.62832 14.7382ZM21.2606 43.3947V24.2418L37.2379 14.7117V33.8647L21.2606 43.3947Z" fill="white"/>
</svg>
