<svg width="134" height="24" viewBox="0 0 134 24" fill="none" xmlns="http://www.w3.org/2000/svg">
<g clip-path="url(#clip0)">
<path d="M123.236 12.4863C124.118 12.505 125.004 12.4479 125.882 12.516C126.772 12.6792 126.986 14.004 126.196 14.4394C125.657 14.7274 125.016 14.546 124.432 14.5964H123.236V12.4863ZM126.392 10.0983C126.587 10.7789 125.922 11.3904 125.256 11.2983H123.236C123.25 10.6565 123.208 9.95956 123.256 9.35092C124.065 9.37348 124.882 9.30532 125.686 9.38692C125.859 9.42931 126.017 9.51829 126.142 9.64392C126.266 9.76954 126.353 9.92686 126.392 10.0983ZM131.253 0.000522745C131.29 1.30036 131.258 2.66932 131.269 3.99604C131.267 9.38996 131.265 14.7836 131.265 20.1768C131.229 22.1986 129.41 23.9549 127.371 23.9952C125.331 24.0034 123.29 23.9952 121.25 23.9986V15.8458C123.473 15.8343 125.697 15.8688 127.92 15.8285C128.951 15.7647 130.081 15.0951 130.129 13.9776C130.249 12.8554 129.177 12.0792 128.154 11.9568C127.764 11.9468 127.773 11.844 128.154 11.7994C129.128 11.5925 129.891 10.5994 129.605 9.60772C129.361 8.56324 128.188 8.15908 127.213 8.161C125.225 8.14756 123.236 8.161 121.248 8.15524C121.261 6.63316 121.221 5.10916 121.269 3.58804C121.431 1.60324 123.294 -0.0335573 125.304 0.000522745H131.253Z" fill="#58AC34"/>
<path d="M98.7813 3.79142C98.832 1.77542 100.659 0.0325334 102.695 0.00277334C104.728 -0.00346667 106.761 0.00277334 108.794 0.00277334C108.788 6.75494 108.805 13.5081 108.786 20.2588C108.708 22.2522 106.9 23.961 104.888 23.9966C102.851 24.0038 100.814 23.9966 98.7774 23.9994V15.5697C100.756 16.03 102.83 16.2258 104.849 15.9206C106.055 15.7286 107.376 15.1458 107.784 13.9132C108.084 12.8572 107.915 11.7493 107.96 10.6674V8.15414H104.467C104.451 9.81639 104.499 11.4815 104.442 13.1414C104.347 14.1618 103.321 14.8098 102.344 14.7734C101.132 14.7863 98.7302 13.9094 98.7302 13.9094C98.7243 10.7956 98.7652 6.89558 98.7828 3.7919L98.7813 3.79142Z" fill="#0052AB"/>
<path d="M110.097 9.16893C109.913 9.20733 110.06 8.55213 110.013 8.30493C110.025 6.73389 109.987 5.16093 110.034 3.59037C110.192 1.59645 112.071 -0.0446721 114.089 0.000927909H120.033C120.027 6.75309 120.043 13.5062 120.024 20.2569C119.946 22.2508 118.138 23.9592 116.126 23.9947C114.089 24.0024 112.053 23.9947 110.015 23.998V14.7652C111.407 15.8894 113.297 16.0641 115.033 16.0675C116.34 16.0675 117.639 15.8683 118.908 15.5716V13.8801C117.478 14.5819 115.797 15.0273 114.211 14.6241C113.106 14.3534 112.303 13.3008 112.321 12.1761C112.193 11.0078 112.889 9.77613 114.054 9.42669C115.503 8.98029 117.081 9.32157 118.439 9.90189C118.731 10.0516 119.024 10.2379 118.909 9.75789V8.42829C116.638 7.89645 114.223 7.70061 111.942 8.27949C111.282 8.46285 110.639 8.74077 110.102 9.16749L110.097 9.16893Z" fill="#C91533"/>
</g>
<path d="M83.9738 0H50.0262C48.9076 0 48 0.91248 48 2.03856V21.9614C48 23.0875 48.9071 24 50.0262 24H83.9738C85.0943 24 86 23.088 86 21.9614V2.03856C86 0.91248 85.0929 0 83.9738 0Z" fill="#0052AB"/>
<path d="M69.9153 12.0146C69.9149 13.437 69.4865 14.8274 68.6841 16.0099C67.8817 17.1924 66.7415 18.1139 65.4076 18.658C64.0737 19.2021 62.606 19.3443 61.1901 19.0665C59.7741 18.7888 58.4736 18.1036 57.4529 17.0977C56.4322 16.0918 55.7371 14.8102 55.4556 13.4151C55.1741 12.02 55.3188 10.5739 55.8714 9.25981C56.4239 7.94569 57.3596 6.82252 58.56 6.0323C59.7604 5.24209 61.1717 4.82031 62.6154 4.82031C63.5742 4.82031 64.5236 5.00641 65.4094 5.36798C66.2952 5.72955 67.1 6.2595 67.7779 6.92757C68.4558 7.59564 68.9935 8.38875 69.3602 9.26158C69.7269 10.1344 69.9156 11.0699 69.9153 12.0146Z" fill="#E2574C"/>
<path d="M71.3846 4.82031C69.8104 4.81945 68.2785 5.32282 67.02 6.25455H67.0258C67.2655 6.48255 67.5296 6.64335 67.7337 6.90543L66.2147 6.92943C65.9776 7.1695 65.7574 7.42513 65.5555 7.69455H68.235C68.4386 7.93455 68.6272 8.14527 68.7982 8.41119H65.0712C64.9336 8.64329 64.809 8.88269 64.6981 9.12831H69.2225C69.3409 9.37503 69.4466 9.56031 69.5362 9.82287H64.4287C64.3465 10.0725 64.2786 10.3265 64.2255 10.5837H69.7487C69.8027 10.8328 69.8461 11.0637 69.8729 11.2974H64.1164C64.0919 11.5367 64.0797 11.777 64.0798 12.0174H69.9148C69.9138 12.2581 69.8988 12.4985 69.87 12.7374H64.1164C64.1411 12.9813 64.1774 13.2213 64.2255 13.4574H69.7399C69.6829 13.6902 69.6176 13.925 69.5348 14.1683H64.4121C64.49 14.4123 64.5815 14.6519 64.6864 14.8859H69.221C69.0949 15.1334 68.953 15.3727 68.7962 15.6026H65.0566C65.2037 15.8531 65.3664 16.0943 65.5438 16.325L68.2335 16.3643C68.0046 16.6355 67.7103 16.7963 67.4423 17.0363C67.457 17.0478 67.0136 17.0363 66.1411 17.0214C66.9802 17.8734 68.0203 18.5074 69.1686 18.867C70.3169 19.2266 71.5377 19.3006 72.7221 19.0823C73.9064 18.864 75.0175 18.3603 75.9563 17.6161C76.895 16.8718 77.6321 15.9102 78.1019 14.817C78.5718 13.7238 78.7596 12.533 78.6488 11.3509C78.5379 10.1688 78.1318 9.03209 77.4666 8.04222C76.8015 7.05234 75.898 6.24008 74.8367 5.6779C73.7755 5.11571 72.5895 4.82109 71.3846 4.82031Z" fill="#F4B459"/>
<path d="M35.9738 0H2.02618C0.907615 0 0 0.912 0 2.03856V21.9614C0 23.088 0.907128 24 2.02618 24H35.9738C37.0943 24 38 23.088 38 21.9614V2.03856C38 0.912 37.0929 0 35.9738 0Z" fill="#0052AB"/>
<path d="M15.7578 7.01172L14.0673 16.9871H14.0678H16.7702L18.4612 7.01172H15.7578Z" fill="white"/>
<path d="M11.8 7.01994L9.15312 13.8235L8.87153 12.4411L7.92397 7.85755C7.76027 7.22587 7.28576 7.03771 6.69822 7.01562H2.33845L2.30386 7.22299C3.29658 7.45855 4.252 7.82659 5.14363 8.31691L7.54738 16.9809L10.4076 16.9776L14.6641 7.01994H11.8Z" fill="white"/>
<path d="M23.9122 11.017C22.9676 10.5557 22.3888 10.249 22.3947 9.78048C22.3947 9.36576 22.8848 8.92224 23.9429 8.92224C24.6375 8.90766 25.3273 9.03854 25.9667 9.30624L26.2103 9.42144L26.5766 7.25903C25.8011 6.97652 24.9802 6.83455 24.1534 6.83999C21.4822 6.83999 19.6007 8.19312 19.5846 10.1323C19.5695 11.5656 20.9278 12.3648 21.9533 12.8424C23.0056 13.331 23.3593 13.643 23.3544 14.0794C23.3476 14.748 22.514 15.0538 21.737 15.0538C20.655 15.0538 20.0806 14.9026 19.1924 14.5301L18.8441 14.3717L18.4641 16.6032C19.0974 16.8816 20.2633 17.1226 21.4754 17.135C24.3176 17.135 26.162 15.7978 26.183 13.727C26.1922 12.5928 25.4722 11.7288 23.9122 11.017Z" fill="white"/>
<path d="M35.6961 16.9931L33.5077 7.02344H31.4187C30.7717 7.02344 30.2875 7.20104 30.0029 7.85096L25.9881 16.9931H28.8269C28.8269 16.9931 29.2912 15.7638 29.3959 15.494C29.7063 15.494 32.4652 15.4983 32.8583 15.4983C32.9392 15.8473 33.1872 16.9931 33.1872 16.9931H35.6961ZM30.0775 13.4516C30.3006 12.8756 31.1493 10.6676 31.1493 10.6676C31.1332 10.6945 31.3705 10.0916 31.5064 9.71672L31.6886 10.5759L32.3127 13.4559L30.0775 13.4516Z" fill="white"/>
<defs>
<clipPath id="clip0">
<rect width="38" height="24" fill="white" transform="translate(96)"/>
</clipPath>
</defs>
</svg>
