<svg width="19" height="20" viewBox="0 0 19 20" fill="none" xmlns="http://www.w3.org/2000/svg">
<path d="M9.5 1.5C4.80444 1.5 1 5.33871 1 10C1 14.6956 4.80444 18.5 9.5 18.5C14.1613 18.5 18 14.6956 18 10C18 5.33871 14.1613 1.5 9.5 1.5ZM12.3105 13.7702C12.1734 13.9073 12.0363 14.0444 11.8992 14.1472C11.7964 14.25 11.7278 14.3871 11.6935 14.5242C11.6593 14.7298 11.625 14.9012 11.5565 15.1069L10.9395 16.7177C10.4597 16.8206 9.97984 16.8548 9.5 16.8548V15.9294C9.53427 15.4839 9.22581 14.6956 8.71169 14.1815C8.50605 13.9758 8.40323 13.7016 8.40323 13.3931V12.2964C8.40323 11.9194 8.16331 11.5423 7.82056 11.3367C7.34073 11.0625 6.62097 10.6855 6.14113 10.4456C5.76411 10.2399 5.3871 10 5.07863 9.69153H5.04435C4.83871 9.52016 4.56452 9.17742 4.42742 8.97177C4.08468 8.49194 3.57056 7.7379 3.22782 7.22379C3.94758 5.64718 5.18145 4.41331 6.75806 3.72782L7.58065 4.13911C7.95766 4.31048 8.40323 4.07056 8.40323 3.65927V3.24798C8.64315 3.21371 8.95161 3.17944 9.22581 3.17944L10.1855 4.13911C10.3911 4.34476 10.3911 4.72177 10.1855 4.92742L10.0484 5.06452L9.67137 5.44153C9.56855 5.54435 9.56855 5.71573 9.67137 5.81855L9.84274 5.98992C9.94556 6.09274 9.94556 6.26411 9.84274 6.36694L9.56855 6.64113C9.53427 6.6754 9.43145 6.70968 9.3629 6.70968H9.05444C8.98589 6.70968 8.91734 6.74395 8.88306 6.8125L8.54032 7.12097C8.47177 7.18952 8.4375 7.25806 8.4375 7.32661C8.4375 7.36089 8.47177 7.42944 8.47177 7.46371L9.02016 8.52621C9.08871 8.69758 8.98589 8.90323 8.78024 8.90323H8.5746C8.50605 8.90323 8.4375 8.90323 8.40323 8.86895L8.06048 8.56048C7.99194 8.49194 7.82056 8.45766 7.71774 8.45766C7.64919 8.45766 7.58065 8.45766 7.54637 8.45766L6.48387 8.83468C6.3125 8.86895 6.20968 9.04032 6.20968 9.21169C6.20968 9.38306 6.27823 9.52016 6.41532 9.58871L6.79234 9.76008C7.13508 9.93145 7.47782 10 7.85484 10C8.19758 10 8.60887 10.9597 8.95161 11.0968H11.2137C11.5222 11.0968 11.7964 11.2339 12.002 11.4395L12.4819 11.9194C12.6532 12.0565 12.7903 12.3992 12.7903 12.6391C12.7903 13.0161 12.5504 13.5302 12.3105 13.7702ZM15.2923 10.6512C15.0867 10.5827 14.9153 10.4798 14.7782 10.3085L14.1613 9.38306C14.0927 9.24597 14.0242 9.0746 14.0242 8.90323C14.0242 8.76613 14.0927 8.59476 14.1613 8.45766L14.8468 7.46371C14.9153 7.32661 15.0181 7.25806 15.1552 7.18952L15.6008 6.9496C16.0806 7.875 16.3548 8.90323 16.3548 10C16.3548 10.3085 16.3206 10.6169 16.2863 10.8911L15.2923 10.6512Z" fill="white"/>
</svg>
