<svg width="70" height="70" viewBox="0 0 70 70" fill="none" xmlns="http://www.w3.org/2000/svg">
<path d="M35.8437 8.06291C42.8343 8.10642 49.5236 10.9029 54.4512 15.8417C59.3788 20.7805 62.1445 27.4606 62.1444 34.4234V35.9391C62.1445 42.9019 59.3788 49.5819 54.4512 54.5207C49.5236 59.4596 42.8343 62.256 35.8437 62.2996H34.2889C27.2696 62.2996 20.5379 59.5223 15.5745 54.5787C10.6112 49.6352 7.82281 42.9303 7.82281 35.9391V34.2916C7.82281 27.3003 10.6112 20.5954 15.5745 15.6519C20.5379 10.7084 27.2696 7.9311 34.2889 7.9311H35.8437V8.06291ZM35.8437 2H34.2889C25.7281 2.00872 17.5204 5.39977 11.467 11.429C5.41366 17.4582 2.00903 25.6331 2.00027 34.1598V35.6755C1.98286 39.9114 2.80494 44.1091 4.41939 48.028C6.03383 51.9468 8.40891 55.5098 11.4085 58.5128C14.4081 61.5157 17.9731 63.8994 21.8994 65.5275C25.8257 67.1555 30.0359 67.9957 34.2889 68H35.8437C44.39 67.9651 52.5738 64.557 58.6014 58.5225C64.629 52.488 68.0088 44.3195 68 35.8073V34.2916C68.0088 25.7793 64.629 17.6108 58.6014 11.5764C52.5738 5.5419 44.39 2.13373 35.8437 2.09885V2Z" fill="#FF3A1E"/>
<path d="M46 24L23 47M46 47L23 24" stroke="#FF3A1E" stroke-width="6" stroke-linecap="round"/>
</svg>
