<svg width="24" height="24" viewBox="0 0 24 24" fill="none" xmlns="http://www.w3.org/2000/svg">
<path d="M12.01 17.7244L6.25999 20.6113L7.35999 14.4903L2.73999 10.1847L9.12999 9.29186L12.01 3.70654L14.89 9.29186L21.28 10.1847L16.66 14.4903L17.76 20.6113L12.01 17.7244Z" fill="#FFD578"/>
<path d="M12.01 5.4127L14.01 9.28175L14.38 10.006L15.19 10.1151L19.56 10.7202L16.43 13.6369L15.82 14.2123L15.97 15.0357L16.72 19.2123L12.72 17.2282L12 16.871L11.29 17.2282L7.29 19.2123L8.04 15.0357L8.19 14.2123L7.57 13.6369L4.44 10.7202L8.81 10.1151L9.62 10.006L10 9.28175L12 5.4127H12.01ZM12 2L8.61 8.5873L1 9.63889L6.5 14.7679L5.21 22L12 18.5873L18.8 22L17.5 14.7679L23 9.63889L15.4 8.5873L12 2Z" fill="#D89612"/>
</svg>
