<svg width="24" height="24" viewBox="0 0 24 24" fill="none" xmlns="http://www.w3.org/2000/svg">
<circle cx="12" cy="12" r="12" fill="#FFDB45"/>
<path d="M15.4479 8.01227C14.8319 7.35427 14.0899 6.85027 13.0679 6.69627V5.07227H11.4299V6.72427C9.90389 7.03227 8.99389 8.13827 8.99389 9.73427C8.99389 12.5903 13.1799 12.6323 13.1799 14.1583C13.1799 14.8443 12.8019 15.1803 11.9339 15.1803C11.2059 15.1803 10.5059 14.8863 9.67989 14.2563L8.58789 15.9363C9.35789 16.6363 10.4919 17.0563 11.4299 17.1683V18.7503H13.0679V17.0843C14.7339 16.7203 15.5599 15.5163 15.5599 13.9763C15.5599 10.9663 11.3599 11.0363 11.3599 9.62227C11.3599 8.92227 11.7519 8.65627 12.4939 8.65627C13.1379 8.65627 13.6419 8.92227 14.2159 9.44027L15.4479 8.01227Z" fill="#F1A716"/>
</svg>
