<svg width="24" height="24" viewBox="0 0 24 24" fill="none" xmlns="http://www.w3.org/2000/svg">
<path d="M23 12C23 5.92339 18.0766 1 12 1C5.92339 1 1 5.92339 1 12C1 16.7016 3.88306 20.6492 7.96371 22.246C7.875 21.4032 7.78629 20.0726 8.00806 19.0968C8.22984 18.254 9.29436 13.6411 9.29436 13.6411C9.29436 13.6411 8.98387 12.9758 8.98387 12C8.98387 10.4919 9.87097 9.33871 10.9798 9.33871C11.9113 9.33871 12.3548 10.0484 12.3548 10.8911C12.3548 11.8226 11.7339 13.2419 11.4234 14.5726C11.2016 15.6371 12 16.5242 13.0645 16.5242C15.0161 16.5242 16.5242 14.4839 16.5242 11.5121C16.5242 8.85081 14.6169 7.03226 11.9556 7.03226C8.80645 7.03226 6.9879 9.38306 6.9879 11.7782C6.9879 12.754 7.34274 13.7742 7.78629 14.3065C7.875 14.3952 7.875 14.5282 7.875 14.6169C7.78629 14.9718 7.56452 15.7258 7.56452 15.8589C7.52016 16.0806 7.3871 16.125 7.16532 16.0363C5.79032 15.371 4.94758 13.375 4.94758 11.7339C4.94758 8.27419 7.47581 5.08065 12.2218 5.08065C16.0363 5.08065 19.0081 7.83065 19.0081 11.4677C19.0081 15.2379 16.6129 18.2984 13.2863 18.2984C12.1774 18.2984 11.1129 17.7218 10.7581 17.0121C10.7581 17.0121 10.2258 19.1411 10.0927 19.629C9.82661 20.6048 9.16129 21.8024 8.71774 22.5121C9.7379 22.8669 10.8468 23 12 23C18.0766 23 23 18.0766 23 12Z" fill="white"/>
</svg>
