<svg width="20" height="20" viewBox="0 0 20 20" fill="none" xmlns="http://www.w3.org/2000/svg">
<path d="M16.2969 7.35604L12.4743 6.82305L10.7462 3.44739C10.4582 2.86363 9.56799 2.83825 9.25379 3.44739L7.55192 6.82305L3.70307 7.35604C3.02232 7.45757 2.76049 8.26976 3.25796 8.75199L6.00714 11.3662L5.35258 15.0465C5.24785 15.7064 5.98096 16.214 6.58316 15.9094L10.0131 14.1581L13.4168 15.9094C14.019 16.214 14.7522 15.7064 14.6474 15.0465L13.9929 11.3662L16.742 8.75199C17.2395 8.26976 16.9777 7.45757 16.2969 7.35604ZM12.6314 10.9347L13.2597 14.4373L10.0131 12.7876L6.74026 14.4373L7.36864 10.9347L4.72419 8.44742L8.36358 7.9398L10.0131 4.74181L11.6364 7.9398L15.2758 8.44742L12.6314 10.9347Z" fill="#212529"/>
</svg>
