<svg width="24" height="24" viewBox="0 0 24 24" fill="none" xmlns="http://www.w3.org/2000/svg">
<path d="M12.2557 3.87631C14.374 3.88949 16.4011 4.7369 17.8943 6.23352C19.3875 7.73014 20.2256 9.75439 20.2256 11.8643V12.3236C20.2256 14.4336 19.3875 16.4578 17.8943 17.9544C16.4011 19.4511 14.374 20.2985 12.2557 20.3117H11.7845C9.65746 20.3117 7.61754 19.4701 6.11349 17.972C4.60945 16.474 3.76449 14.4422 3.76449 12.3236V11.8244C3.76449 9.70583 4.60945 7.67405 6.11349 6.176C7.61754 4.67796 9.65746 3.83637 11.7845 3.83637H12.2557V3.87631ZM12.2557 2.03906H11.7845C9.19033 2.04171 6.70316 3.0693 4.8688 4.89634C3.03444 6.72338 2.00274 9.20062 2.00008 11.7844V12.2438C1.99481 13.5274 2.24392 14.7994 2.73315 15.9869C3.22237 17.1745 3.94209 18.2542 4.85105 19.1641C5.76002 20.0741 6.84035 20.7965 8.03013 21.2898C9.21991 21.7831 10.4957 22.0378 11.7845 22.0391H12.2557C14.8454 22.0285 17.3254 20.9957 19.1519 19.1671C20.9785 17.3385 22.0027 14.8632 22 12.2837V11.8244C22.0027 9.24492 20.9785 6.76962 19.1519 4.94099C17.3254 3.11237 14.8454 2.07959 12.2557 2.06902V2.03906Z" fill="#1CCF80"/>
<path d="M10.6817 15.8483C10.5636 15.8483 10.4467 15.8245 10.3382 15.7781C10.2296 15.7318 10.1316 15.6639 10.0502 15.5788L6.90232 12.4534C6.73397 12.285 6.63945 12.057 6.63945 11.8194C6.63945 11.5817 6.73397 11.3538 6.90232 11.1853C7.07311 11.017 7.30367 10.9227 7.54392 10.9227C7.78417 10.9227 8.01473 11.017 8.18552 11.1853L10.6817 13.6716L15.8547 8.52933C16.0269 8.37911 16.2501 8.29973 16.4789 8.30728C16.7077 8.31484 16.9251 8.40875 17.087 8.57C17.2489 8.73125 17.3432 8.94777 17.3508 9.17568C17.3584 9.40359 17.2787 9.62586 17.1278 9.79742L11.3233 15.5788C11.1537 15.7496 10.923 15.8465 10.6817 15.8483Z" fill="#1CCF80"/>
</svg>
