<svg width="20" height="20" viewBox="0 0 20 20" fill="none" xmlns="http://www.w3.org/2000/svg">
<path d="M10 17C13.8669 17 17 13.8669 17 10C17 6.13306 13.8669 3 10 3C6.13306 3 3 6.13306 3 10C3 13.8669 6.13306 17 10 17ZM10 4.35484C13.1048 4.35484 15.6452 6.89516 15.6452 10C15.6452 13.1331 13.1048 15.6452 10 15.6452C6.86694 15.6452 4.35484 13.1331 4.35484 10C4.35484 6.89516 6.86694 4.35484 10 4.35484ZM10.5645 13.6129C10.7339 13.6129 10.9032 13.4718 10.9032 13.2742V10H12.7944C13.0766 10 13.246 9.66129 13.0202 9.43548L10.2258 6.64113C10.0847 6.5 9.8871 6.5 9.74597 6.64113L6.95161 9.43548C6.75403 9.66129 6.89516 10 7.20565 10H9.09677V13.2742C9.09677 13.4718 9.2379 13.6129 9.43548 13.6129H10.5645Z" fill="#212529"/>
</svg>
